
<svg xmlns="http://www.w3.org/2000/svg" xmlns:xlink="http://www.w3.org/1999/xlink" version="1.1" width="1080" height="1080" viewBox="0 0 1080 1080" xml:space="preserve">
<desc>Created with Fabric.js 5.2.4</desc>
<defs>
</defs>
<g transform="matrix(1 0 0 1 540 540)" id="cb7a099a-16ff-4a5f-804c-f7405894348a"  >
<rect style="stroke: none; stroke-width: 1; stroke-dasharray: none; stroke-linecap: butt; stroke-dashoffset: 0; stroke-linejoin: miter; stroke-miterlimit: 4; fill: rgb(255,255,255); fill-rule: nonzero; opacity: 1; visibility: hidden;" vector-effect="non-scaling-stroke"  x="-540" y="-540" rx="0" ry="0" width="1080" height="1080" />
</g>
<g transform="matrix(1 0 0 1 540 540)" id="ae571002-ab90-48c3-b1a5-5d15163cadcb"  >
</g>
<g transform="matrix(1 0 0 1 540 540)"  >
<g style="" vector-effect="non-scaling-stroke"   >
		<g transform="matrix(1 0 0 1 0 141.24)"  >
<rect style="stroke: none; stroke-width: 1; stroke-dasharray: none; stroke-linecap: butt; stroke-dashoffset: 0; stroke-linejoin: miter; stroke-miterlimit: 4; fill: rgb(235,235,235); fill-rule: nonzero; opacity: 1;" vector-effect="non-scaling-stroke"  x="-250" y="-0.125" rx="0" ry="0" width="500" height="0.25" />
</g>
		<g transform="matrix(1 0 0 1 189.06 157.34)"  >
<rect style="stroke: none; stroke-width: 1; stroke-dasharray: none; stroke-linecap: butt; stroke-dashoffset: 0; stroke-linejoin: miter; stroke-miterlimit: 4; fill: rgb(235,235,235); fill-rule: nonzero; opacity: 1;" vector-effect="non-scaling-stroke"  x="-10.84" y="-0.125" rx="0" ry="0" width="21.68" height="0.25" />
</g>
		<g transform="matrix(1 0 0 1 77.62 152.16)"  >
<rect style="stroke: none; stroke-width: 1; stroke-dasharray: none; stroke-linecap: butt; stroke-dashoffset: 0; stroke-linejoin: miter; stroke-miterlimit: 4; fill: rgb(235,235,235); fill-rule: nonzero; opacity: 1;" vector-effect="non-scaling-stroke"  x="-17.055" y="-0.125" rx="0" ry="0" width="34.11" height="0.25" />
</g>
		<g transform="matrix(1 0 0 1 168.85 148.05)"  >
<rect style="stroke: none; stroke-width: 1; stroke-dasharray: none; stroke-linecap: butt; stroke-dashoffset: 0; stroke-linejoin: miter; stroke-miterlimit: 4; fill: rgb(235,235,235); fill-rule: nonzero; opacity: 1;" vector-effect="non-scaling-stroke"  x="-22.265" y="-0.125" rx="0" ry="0" width="44.53" height="0.25" />
</g>
		<g transform="matrix(1 0 0 1 -82.55 153.09)"  >
<rect style="stroke: none; stroke-width: 1; stroke-dasharray: none; stroke-linecap: butt; stroke-dashoffset: 0; stroke-linejoin: miter; stroke-miterlimit: 4; fill: rgb(235,235,235); fill-rule: nonzero; opacity: 1;" vector-effect="non-scaling-stroke"  x="-5.57" y="-0.125" rx="0" ry="0" width="11.14" height="0.25" />
</g>
		<g transform="matrix(1 0 0 1 -116.22 153.09)"  >
<rect style="stroke: none; stroke-width: 1; stroke-dasharray: none; stroke-linecap: butt; stroke-dashoffset: 0; stroke-linejoin: miter; stroke-miterlimit: 4; fill: rgb(235,235,235); fill-rule: nonzero; opacity: 1;" vector-effect="non-scaling-stroke"  x="-19.195" y="-0.125" rx="0" ry="0" width="38.39" height="0.25" />
</g>
		<g transform="matrix(1 0 0 1 -169.84 148.87)"  >
<rect style="stroke: none; stroke-width: 1; stroke-dasharray: none; stroke-linecap: butt; stroke-dashoffset: 0; stroke-linejoin: miter; stroke-miterlimit: 4; fill: rgb(235,235,235); fill-rule: nonzero; opacity: 1;" vector-effect="non-scaling-stroke"  x="-13.85" y="-0.125" rx="0" ry="0" width="27.7" height="0.25" />
</g>
		<g transform="matrix(1 0 0 1 -109.54 -44.88)"  >
<path style="stroke: none; stroke-width: 1; stroke-dasharray: none; stroke-linecap: butt; stroke-dashoffset: 0; stroke-linejoin: miter; stroke-miterlimit: 4; fill: rgb(235,235,235); fill-rule: nonzero; opacity: 1;" vector-effect="non-scaling-stroke"  transform=" translate(-140.46, -196.4)" d="M 237 337.8 L 43.91 337.8 C 40.76036002724501 337.7944839845871 38.209995169860214 335.2396448028911 38.209999999999994 332.09000000000003 L 38.209999999999994 60.66 C 38.237405461492756 57.52989179880672 40.779776420281294 55.00536203972899 43.90999999999999 55 L 237 55 C 238.5143861569838 55 239.9667469996369 55.601587558486536 241.0375797205752 56.67242027942481 C 242.10841244151348 57.74325300036309 242.71 59.195613843016204 242.71 60.71 L 242.71 332.09 C 242.71 333.60438615698376 242.10841244151348 335.0567469996369 241.0375797205752 336.12757972057517 C 239.96674699963694 337.1984124415135 238.51438615698382 337.8 237 337.8 Z M 43.91 55.2 C 40.898431246908906 55.20551570293369 38.45999494898575 57.6484261958989 38.459999999999994 60.660000000000004 L 38.459999999999994 332.09 C 38.45999494898576 335.10157380410106 40.89843124690891 337.5444842970663 43.91 337.54999999999995 L 237 337.54999999999995 C 240.0131921402317 337.54449643895015 242.45449643895017 335.10319214023167 242.46 332.09 L 242.46 60.66 C 242.45449643895017 57.6468078597683 240.0131921402317 55.205503561049824 237 55.2 Z" stroke-linecap="round" />
</g>
		<g transform="matrix(1 0 0 1 106.75 -44.88)"  >
<path style="stroke: none; stroke-width: 1; stroke-dasharray: none; stroke-linecap: butt; stroke-dashoffset: 0; stroke-linejoin: miter; stroke-miterlimit: 4; fill: rgb(235,235,235); fill-rule: nonzero; opacity: 1;" vector-effect="non-scaling-stroke"  transform=" translate(-356.75, -196.4)" d="M 453.31 337.8 L 260.21 337.8 C 257.05873689262756 337.7944955977045 254.50550440229551 335.24126310737245 254.49999999999997 332.09000000000003 L 254.49999999999997 60.66 C 254.53284752320988 57.52828035892403 257.0781125902332 55.00530307707603 260.21 55 L 453.30999999999995 55 C 456.4363232788133 55.01083071187344 458.97264273582635 57.53377765856827 459 60.66 L 459 332.09 C 459.0000192967236 335.23575191838614 456.4557326217217 337.788981604548 453.31 337.8 Z M 260.21 55.2 C 257.1968078597683 55.20550356104983 254.7555035610498 57.64680785976831 254.74999999999997 60.660000000000004 L 254.74999999999997 332.09 C 254.7555035610498 335.10319214023167 257.1968078597683 337.54449643895015 260.21 337.54999999999995 L 453.30999999999995 337.54999999999995 C 456.32319214023164 337.5444964389501 458.76449643895006 335.10319214023167 458.7699999999999 332.09 L 458.7699999999999 60.66 C 458.7644964389501 57.64680785976831 456.32319214023164 55.20550356104984 453.30999999999995 55.199999999999996 Z" stroke-linecap="round" />
</g>
		<g transform="matrix(1 0 0 1 -125.83 -87.56)"  >
<path style="stroke: none; stroke-width: 1; stroke-dasharray: none; stroke-linecap: butt; stroke-dashoffset: 0; stroke-linejoin: miter; stroke-miterlimit: 4; fill: rgb(224,224,224); fill-rule: nonzero; opacity: 1;" vector-effect="non-scaling-stroke"  transform=" translate(-124.17, -153.72)" d="M 115 174.63 C 126.54827397647199 174.62999979848885 135.90999963513178 165.268273976472 135.90999963513178 153.72 C 135.90999963513178 142.171726023528 126.54827397647199 132.81000020151114 115 132.81 L 112.43 132.81 L 112.43 174.63 Z" stroke-linecap="round" />
</g>
		<g transform="matrix(1 0 0 1 -137.59 -87.56)"  >
<circle style="stroke: none; stroke-width: 1; stroke-dasharray: none; stroke-linecap: butt; stroke-dashoffset: 0; stroke-linejoin: miter; stroke-miterlimit: 4; fill: rgb(245,245,245); fill-rule: nonzero; opacity: 1;" vector-effect="non-scaling-stroke"  cx="0" cy="0" r="20.91" />
</g>
		<g transform="matrix(1 0 0 1 -151.16 -108.61)"  >
<path style="stroke: none; stroke-width: 1; stroke-dasharray: none; stroke-linecap: butt; stroke-dashoffset: 0; stroke-linejoin: miter; stroke-miterlimit: 4; fill: rgb(224,224,224); fill-rule: nonzero; opacity: 1;" vector-effect="non-scaling-stroke"  transform=" translate(-98.84, -132.67)" d="M 111.45 156.34 C 95.98602700473779 156.34 83.45 143.80397299526223 83.45 128.34 L 83.45 111.63 C 83.45 110.177491107945 84.62749110794502 109 86.08000000000001 109 C 87.53250889205499 109 88.71000000000001 110.177491107945 88.71000000000001 111.63 L 88.71000000000001 128.35 C 88.72101765412239 140.90048542678426 98.88952063339687 151.0734620105371 111.44000000000001 151.09 C 112.41648853478173 151.02970112589742 113.34574253742066 151.51641833277287 113.8522300307657 152.3534584942127 C 114.35871752411074 153.19049865565256 114.35871752411074 154.23950134434745 113.85223003076571 155.0765415057873 C 113.34574253742066 155.91358166722713 112.41648853478173 156.4002988741026 111.44000000000001 156.34 Z" stroke-linecap="round" />
</g>
		<g transform="matrix(1 0 0 1 -163.89 -127.41)"  >
<path style="stroke: none; stroke-width: 1; stroke-dasharray: none; stroke-linecap: butt; stroke-dashoffset: 0; stroke-linejoin: miter; stroke-miterlimit: 4; fill: rgb(245,245,245); fill-rule: nonzero; opacity: 1;" vector-effect="non-scaling-stroke"  transform=" translate(-86.11, -113.87)" d="M 62.83 126.35 L 109.35 126.35 C 110.85782630768941 126.35026407455 112.28037246430853 125.65065449118735 113.20065638548502 124.45624344455403 C 114.12094030666151 123.26183239792073 114.43471291411402 121.70792188323297 114.05 120.25 L 110 105 C 109.43788693281496 102.86978015376421 107.51313197163383 101.38414839268198 105.31 101.38 L 66.87 101.38 C 64.6643359512003 101.38310122839857 62.736133915533195 102.86822705161451 62.17 105 L 58.17 120.23 C 57.775407365062456 121.68427376930693 58.07917922570388 123.23934312336175 58.992045022603094 124.43821408409634 C 59.904910819502305 125.63708504483093 61.32315762166654 126.3435509303406 62.83 126.35 Z" stroke-linecap="round" />
</g>
		<g transform="matrix(1 0 0 1 169.45 -87.56)"  >
<path style="stroke: none; stroke-width: 1; stroke-dasharray: none; stroke-linecap: butt; stroke-dashoffset: 0; stroke-linejoin: miter; stroke-miterlimit: 4; fill: rgb(224,224,224); fill-rule: nonzero; opacity: 1;" vector-effect="non-scaling-stroke"  transform=" translate(-419.45, -153.72)" d="M 410.28 174.63 C 417.7504235718829 174.63000013035486 424.65337967361774 170.64457667388328 428.38859149718945 164.1750001053284 C 432.1238033207611 157.70542353677348 432.1238033207611 149.73457646322652 428.38859149718945 143.2649998946716 C 424.65337967361774 136.79542332611672 417.7504235718829 132.80999986964514 410.28 132.81 L 407.71 132.81 L 407.71 174.63 Z" stroke-linecap="round" />
</g>
		<g transform="matrix(1 0 0 1 157.71 -87.56)"  >
<circle style="stroke: none; stroke-width: 1; stroke-dasharray: none; stroke-linecap: butt; stroke-dashoffset: 0; stroke-linejoin: miter; stroke-miterlimit: 4; fill: rgb(245,245,245); fill-rule: nonzero; opacity: 1;" vector-effect="non-scaling-stroke"  cx="0" cy="0" r="20.91" />
</g>
		<g transform="matrix(1 0 0 1 144.14 -108.61)"  >
<path style="stroke: none; stroke-width: 1; stroke-dasharray: none; stroke-linecap: butt; stroke-dashoffset: 0; stroke-linejoin: miter; stroke-miterlimit: 4; fill: rgb(224,224,224); fill-rule: nonzero; opacity: 1;" vector-effect="non-scaling-stroke"  transform=" translate(-394.14, -132.67)" d="M 406.75 156.34 C 391.2860270047378 156.34 378.75 143.80397299526223 378.75 128.34 L 378.75 111.63 C 378.75000008302595 110.17749116665321 379.9274911666532 109.00000015033174 381.38 109.00000015033174 C 382.83250883334676 109.00000015033174 384.00999991697404 110.17749116665321 384.01 111.63 L 384.01 128.35 C 384.0210176541224 140.9004854267843 394.18952063339685 151.0734620105371 406.74 151.09 C 407.7164885347817 151.02970112589742 408.6457425374207 151.51641833277287 409.1522300307657 152.3534584942127 C 409.6587175241107 153.19049865565256 409.6587175241107 154.23950134434745 409.1522300307657 155.0765415057873 C 408.6457425374207 155.91358166722713 407.7164885347817 156.4002988741026 406.74 156.34 Z" stroke-linecap="round" />
</g>
		<g transform="matrix(1 0 0 1 131.41 -127.4)"  >
<path style="stroke: none; stroke-width: 1; stroke-dasharray: none; stroke-linecap: butt; stroke-dashoffset: 0; stroke-linejoin: miter; stroke-miterlimit: 4; fill: rgb(245,245,245); fill-rule: nonzero; opacity: 1;" vector-effect="non-scaling-stroke"  transform=" translate(-381.41, -113.88)" d="M 358.13 126.35 L 404.65 126.35 C 406.1578263076894 126.35026407455 407.5803724643085 125.65065449118734 408.500656385485 124.45624344455403 C 409.42094030666146 123.26183239792071 409.73471291411397 121.70792188323297 409.34999999999997 120.25 L 405.34999999999997 105.02 C 404.7878869328149 102.8897801537642 402.8631319716338 101.40414839268198 400.65999999999997 101.39999999999999 L 362.17 101.39999999999999 C 359.9643359512003 101.40310122839857 358.03613391553324 102.8882270516145 357.47 105.02 L 353.47 120.25 C 353.08279313669294 121.70151993266865 353.39008359302494 123.25053636842735 354.30206130591023 124.44432693679647 C 355.21403901879546 125.63811750516558 356.62774377800304 126.3419059652849 358.13 126.35 Z" stroke-linecap="round" />
</g>
		<g transform="matrix(-1 0 0 -1 -108.41 45.11)"  >
<rect style="stroke: none; stroke-width: 1; stroke-dasharray: none; stroke-linecap: butt; stroke-dashoffset: 0; stroke-linejoin: miter; stroke-miterlimit: 4; fill: rgb(230,230,230); fill-rule: nonzero; opacity: 1;" vector-effect="non-scaling-stroke"  x="-7.605" y="-29.465" rx="0" ry="0" width="15.21" height="58.93" />
</g>
		<g transform="matrix(1 0 0 1 -128.2 40.09)"  >
<polygon style="stroke: none; stroke-width: 1; stroke-dasharray: none; stroke-linecap: butt; stroke-dashoffset: 0; stroke-linejoin: miter; stroke-miterlimit: 4; fill: rgb(240,240,240); fill-rule: nonzero; opacity: 1;" vector-effect="non-scaling-stroke"  points="-29.05,34.49 21.42,34.49 29.05,-34.49 -21.42,-34.49 -29.05,34.49 " />
</g>
		<g transform="matrix(1 0 0 1 -132.84 40.09)"  >
<polygon style="stroke: none; stroke-width: 1; stroke-dasharray: none; stroke-linecap: butt; stroke-dashoffset: 0; stroke-linejoin: miter; stroke-miterlimit: 4; fill: rgb(245,245,245); fill-rule: nonzero; opacity: 1;" vector-effect="non-scaling-stroke"  points="-29.88,34.49 22.26,34.49 29.88,-34.49 -22.25,-34.49 -29.88,34.49 " />
</g>
		<g transform="matrix(1 0 0 1 -132.84 40.09)"  >
<polygon style="stroke: none; stroke-width: 1; stroke-dasharray: none; stroke-linecap: butt; stroke-dashoffset: 0; stroke-linejoin: miter; stroke-miterlimit: 4; fill: rgb(255,255,255); fill-rule: nonzero; opacity: 1;" vector-effect="non-scaling-stroke"  points="18.49,29.05 24.91,-29.05 -18.49,-29.05 -24.91,29.05 18.49,29.05 " />
</g>
		<g transform="matrix(1 0 0 1 -132.79 40.11)"  >
<path style="stroke: none; stroke-width: 1; stroke-dasharray: none; stroke-linecap: butt; stroke-dashoffset: 0; stroke-linejoin: miter; stroke-miterlimit: 4; fill: rgb(245,245,245); fill-rule: nonzero; opacity: 1;" vector-effect="non-scaling-stroke"  transform=" translate(-117.21, -281.39)" d="M 126.69 296.33 L 127 294 C 128.61 279.42 119.51 266.43 107.69 266.43 L 107.69 266.43 L 107.42 268.8 C 105.81 283.37 114.91 296.36 126.74000000000001 296.36 Z" stroke-linecap="round" />
</g>
		<g transform="matrix(-1 0 0 -1 -168.49 107.84)"  >
<rect style="stroke: none; stroke-width: 1; stroke-dasharray: none; stroke-linecap: butt; stroke-dashoffset: 0; stroke-linejoin: miter; stroke-miterlimit: 4; fill: rgb(230,230,230); fill-rule: nonzero; opacity: 1;" vector-effect="non-scaling-stroke"  x="-22.42" y="-33.275" rx="0" ry="0" width="44.84" height="66.55" />
</g>
		<g transform="matrix(1 0 0 1 -186.3 134.71)"  >
<polygon style="stroke: none; stroke-width: 1; stroke-dasharray: none; stroke-linecap: butt; stroke-dashoffset: 0; stroke-linejoin: miter; stroke-miterlimit: 4; fill: rgb(240,240,240); fill-rule: nonzero; opacity: 1;" vector-effect="non-scaling-stroke"  points="-0.11,6.41 -4.62,6.41 -4.62,-6.42 4.62,-6.42 -0.11,6.41 " />
</g>
		<g transform="matrix(-1 0 0 -1 -42.82 107.84)"  >
<rect style="stroke: none; stroke-width: 1; stroke-dasharray: none; stroke-linecap: butt; stroke-dashoffset: 0; stroke-linejoin: miter; stroke-miterlimit: 4; fill: rgb(230,230,230); fill-rule: nonzero; opacity: 1;" vector-effect="non-scaling-stroke"  x="-22.42" y="-33.275" rx="0" ry="0" width="44.84" height="66.55" />
</g>
		<g transform="matrix(-1 0 0 -1 -126.12 103.91)"  >
<rect style="stroke: none; stroke-width: 1; stroke-dasharray: none; stroke-linecap: butt; stroke-dashoffset: 0; stroke-linejoin: miter; stroke-miterlimit: 4; fill: rgb(240,240,240); fill-rule: nonzero; opacity: 1;" vector-effect="non-scaling-stroke"  x="-64.805" y="-29.335" rx="0" ry="0" width="129.61" height="58.67" />
</g>
		<g transform="matrix(1 0 0 1 -65.93 134.71)"  >
<polygon style="stroke: none; stroke-width: 1; stroke-dasharray: none; stroke-linecap: butt; stroke-dashoffset: 0; stroke-linejoin: miter; stroke-miterlimit: 4; fill: rgb(240,240,240); fill-rule: nonzero; opacity: 1;" vector-effect="non-scaling-stroke"  points="0.11,6.41 4.62,6.41 4.62,-6.42 -4.62,-6.42 0.11,6.41 " />
</g>
		<g transform="matrix(-1 0 0 -1 -126.11 90.08)"  >
<rect style="stroke: none; stroke-width: 1; stroke-dasharray: none; stroke-linecap: butt; stroke-dashoffset: 0; stroke-linejoin: miter; stroke-miterlimit: 4; fill: rgb(230,230,230); fill-rule: nonzero; opacity: 1;" vector-effect="non-scaling-stroke"  x="-61.305" y="-11.84" rx="0" ry="0" width="122.61" height="23.68" />
</g>
		<g transform="matrix(1 0 0 1 -126.11 89.68)"  >
<path style="stroke: none; stroke-width: 1; stroke-dasharray: none; stroke-linecap: butt; stroke-dashoffset: 0; stroke-linejoin: miter; stroke-miterlimit: 4; fill: rgb(240,240,240); fill-rule: nonzero; opacity: 1;" vector-effect="non-scaling-stroke"  transform=" translate(-123.89, -330.96)" d="M 115.71 335 L 132.06 335 C 139.16459080227548 335.00293125519863 145.956968739843 332.0805450072995 150.84 326.92 L 96.93 326.92 C 101.81510523171414 332.07757468970294 108.60613982231783 334.9993829693663 115.71 335 Z" stroke-linecap="round" />
</g>
		<g transform="matrix(-1 0 0 -1 -126.11 117.58)"  >
<rect style="stroke: none; stroke-width: 1; stroke-dasharray: none; stroke-linecap: butt; stroke-dashoffset: 0; stroke-linejoin: miter; stroke-miterlimit: 4; fill: rgb(230,230,230); fill-rule: nonzero; opacity: 1;" vector-effect="non-scaling-stroke"  x="-61.305" y="-11.84" rx="0" ry="0" width="122.61" height="23.68" />
</g>
		<g transform="matrix(1 0 0 1 -126.11 117.14)"  >
<path style="stroke: none; stroke-width: 1; stroke-dasharray: none; stroke-linecap: butt; stroke-dashoffset: 0; stroke-linejoin: miter; stroke-miterlimit: 4; fill: rgb(240,240,240); fill-rule: nonzero; opacity: 1;" vector-effect="non-scaling-stroke"  transform=" translate(-123.89, -358.42)" d="M 115.71 362.46 L 132.06 362.46 C 139.16459080227548 362.4629312551986 145.956968739843 359.5405450072995 150.84 354.38 L 96.93 354.38 C 101.81510523171414 359.5375746897029 108.60613982231783 362.4593829693663 115.71 362.46 Z" stroke-linecap="round" />
</g>
		<g transform="matrix(1 0 0 1 -69.34 47.36)"  >
<path style="stroke: none; stroke-width: 1; stroke-dasharray: none; stroke-linecap: butt; stroke-dashoffset: 0; stroke-linejoin: miter; stroke-miterlimit: 4; fill: rgb(230,230,230); fill-rule: nonzero; opacity: 1;" vector-effect="non-scaling-stroke"  transform=" translate(-180.66, -288.64)" d="M 180.48 313.14 L 181.64 313.14 C 181.64 310.75 181.64 304.7 181.76 290.83 C 181.97 265.68 182.37 264.15 182.37 264.15 L 179.61 275.76 C 177.86 288.61 180.12 301.53 180.48 313.14 Z" stroke-linecap="round" />
</g>
		<g transform="matrix(1 0 0 1 -81.07 36.74)"  >
<path style="stroke: none; stroke-width: 1; stroke-dasharray: none; stroke-linecap: butt; stroke-dashoffset: 0; stroke-linejoin: miter; stroke-miterlimit: 4; fill: rgb(230,230,230); fill-rule: nonzero; opacity: 1;" vector-effect="non-scaling-stroke"  transform=" translate(-168.93, -278.02)" d="M 178.19 274 C 174.19 269.27 165.74 267.89 157.06 266.71 C 153.65 266.25 166.01 274.03999999999996 172.06 279.57 C 176.76 283.87 179.76 285.06 181.06 289.34 C 181.72 284 181.61 278.11 178.19 274 Z" stroke-linecap="round" />
</g>
		<g transform="matrix(1 0 0 1 -57.28 45.23)"  >
<path style="stroke: none; stroke-width: 1; stroke-dasharray: none; stroke-linecap: butt; stroke-dashoffset: 0; stroke-linejoin: miter; stroke-miterlimit: 4; fill: rgb(230,230,230); fill-rule: nonzero; opacity: 1;" vector-effect="non-scaling-stroke"  transform=" translate(-192.72, -286.51)" d="M 183.46 282.48 C 187.46 277.75 195.91 276.38 204.59 275.20000000000005 C 208 274.74000000000007 195.59 282.53000000000003 189.59 288.06000000000006 C 184.89000000000001 292.36000000000007 181.89000000000001 293.55000000000007 180.59 297.83000000000004 C 179.93 292.49 180 286.56 183.46 282.48 Z" stroke-linecap="round" />
</g>
		<g transform="matrix(1 0 0 1 -59.53 26.05)"  >
<path style="stroke: none; stroke-width: 1; stroke-dasharray: none; stroke-linecap: butt; stroke-dashoffset: 0; stroke-linejoin: miter; stroke-miterlimit: 4; fill: rgb(230,230,230); fill-rule: nonzero; opacity: 1;" vector-effect="non-scaling-stroke"  transform=" translate(-190.47, -267.33)" d="M 181.76 263 C 184.76 257.34 192.22 252 200.63 250 C 203.93 249.21 192.98 260.44 188.82 267.69 C 185.59 273.31 181.31 279.93 180.64 284.69 C 179.64 275.31 178.78 268.69 181.76 263 Z" stroke-linecap="round" />
</g>
		<g transform="matrix(1 0 0 1 -68.59 70.6)"  >
<path style="stroke: none; stroke-width: 1; stroke-dasharray: none; stroke-linecap: butt; stroke-dashoffset: 0; stroke-linejoin: miter; stroke-miterlimit: 4; fill: rgb(240,240,240); fill-rule: nonzero; opacity: 1;" vector-effect="non-scaling-stroke"  transform=" translate(-181.41, -311.88)" d="M 181.4 315.85 L 181.4 315.85 C 177.86 315.85 174.93 314.08000000000004 174.72 311.8 L 174.13 307.92 L 188.68 307.92 L 188.08 311.8 C 187.88 314.08 185 315.85 181.4 315.85 Z" stroke-linecap="round" />
</g>
		<g transform="matrix(1 0 0 1 -68.59 65.97)"  >
<polygon style="stroke: none; stroke-width: 1; stroke-dasharray: none; stroke-linecap: butt; stroke-dashoffset: 0; stroke-linejoin: miter; stroke-miterlimit: 4; fill: rgb(240,240,240); fill-rule: nonzero; opacity: 1;" vector-effect="non-scaling-stroke"  points="8.22,2.17 -8.22,2.17 -8.69,-2.17 8.69,-2.17 8.22,2.17 " />
</g>
		<g transform="matrix(-1 0 0 -1 -0.35 -87.63)"  >
<rect style="stroke: none; stroke-width: 1; stroke-dasharray: none; stroke-linecap: butt; stroke-dashoffset: 0; stroke-linejoin: miter; stroke-miterlimit: 4; fill: rgb(230,230,230); fill-rule: nonzero; opacity: 1;" vector-effect="non-scaling-stroke"  x="-80.105" y="-73.065" rx="0" ry="0" width="160.21" height="146.13" />
</g>
		<g transform="matrix(-1 0 0 -1 -2.94 -87.63)"  >
<rect style="stroke: none; stroke-width: 1; stroke-dasharray: none; stroke-linecap: butt; stroke-dashoffset: 0; stroke-linejoin: miter; stroke-miterlimit: 4; fill: rgb(245,245,245); fill-rule: nonzero; opacity: 1;" vector-effect="non-scaling-stroke"  x="-81.12" y="-73.065" rx="0" ry="0" width="162.24" height="146.13" />
</g>
		<g transform="matrix(0 1 -1 0 -2.95 -87.62)"  >
<rect style="stroke: none; stroke-width: 1; stroke-dasharray: none; stroke-linecap: butt; stroke-dashoffset: 0; stroke-linejoin: miter; stroke-miterlimit: 4; fill: rgb(250,250,250); fill-rule: nonzero; opacity: 1;" vector-effect="non-scaling-stroke"  x="-66.52" y="-74.65" rx="0" ry="0" width="133.04" height="149.3" />
</g>
		<g transform="matrix(1 0 0 1 14.03 -87.62)"  >
<polygon style="stroke: none; stroke-width: 1; stroke-dasharray: none; stroke-linecap: butt; stroke-dashoffset: 0; stroke-linejoin: miter; stroke-miterlimit: 4; fill: rgb(255,255,255); fill-rule: nonzero; opacity: 1;" vector-effect="non-scaling-stroke"  points="39.36,66.52 -19.4,-66.52 -39.36,-66.52 19.4,66.52 39.36,66.52 " />
</g>
		<g transform="matrix(1 0 0 1 -8.48 -87.62)"  >
<polygon style="stroke: none; stroke-width: 1; stroke-dasharray: none; stroke-linecap: butt; stroke-dashoffset: 0; stroke-linejoin: miter; stroke-miterlimit: 4; fill: rgb(255,255,255); fill-rule: nonzero; opacity: 1;" vector-effect="non-scaling-stroke"  points="36.25,66.52 -22.51,-66.52 -36.25,-66.52 22.51,66.52 36.25,66.52 " />
</g>
		<g transform="matrix(0 1 -1 0 -26.02 -87.63)"  >
<rect style="stroke: none; stroke-width: 1; stroke-dasharray: none; stroke-linecap: butt; stroke-dashoffset: 0; stroke-linejoin: miter; stroke-miterlimit: 4; fill: rgb(230,230,230); fill-rule: nonzero; opacity: 1;" vector-effect="non-scaling-stroke"  x="-66.52" y="-3.86" rx="0" ry="0" width="133.04" height="7.72" />
</g>
		<g transform="matrix(0 1 -1 0 25.3 -87.63)"  >
<rect style="stroke: none; stroke-width: 1; stroke-dasharray: none; stroke-linecap: butt; stroke-dashoffset: 0; stroke-linejoin: miter; stroke-miterlimit: 4; fill: rgb(230,230,230); fill-rule: nonzero; opacity: 1;" vector-effect="non-scaling-stroke"  x="-66.52" y="-3.86" rx="0" ry="0" width="133.04" height="7.72" />
</g>
		<g transform="matrix(0 1 -1 0 -28.43 -87.98)"  >
<rect style="stroke: none; stroke-width: 1; stroke-dasharray: none; stroke-linecap: butt; stroke-dashoffset: 0; stroke-linejoin: miter; stroke-miterlimit: 4; fill: rgb(245,245,245); fill-rule: nonzero; opacity: 1;" vector-effect="non-scaling-stroke"  x="-71.03" y="-4.88" rx="0" ry="0" width="142.06" height="9.76" />
</g>
		<g transform="matrix(0 1 -1 0 22.89 -87.98)"  >
<rect style="stroke: none; stroke-width: 1; stroke-dasharray: none; stroke-linecap: butt; stroke-dashoffset: 0; stroke-linejoin: miter; stroke-miterlimit: 4; fill: rgb(245,245,245); fill-rule: nonzero; opacity: 1;" vector-effect="non-scaling-stroke"  x="-71.03" y="-4.88" rx="0" ry="0" width="142.06" height="9.76" />
</g>
		<g transform="matrix(0 1 -1 0 -77.24 -87.62)"  >
<rect style="stroke: none; stroke-width: 1; stroke-dasharray: none; stroke-linecap: butt; stroke-dashoffset: 0; stroke-linejoin: miter; stroke-miterlimit: 4; fill: rgb(230,230,230); fill-rule: nonzero; opacity: 1;" vector-effect="non-scaling-stroke"  x="-66.52" y="-0.345" rx="0" ry="0" width="133.04" height="0.69" />
</g>
		<g transform="matrix(1 0 0 1 0 -168.27)"  >
<path style="stroke: none; stroke-width: 1; stroke-dasharray: none; stroke-linecap: butt; stroke-dashoffset: 0; stroke-linejoin: miter; stroke-miterlimit: 4; fill: rgb(230,230,230); fill-rule: nonzero; opacity: 1;" vector-effect="non-scaling-stroke"  transform=" translate(-250, -73.01)" d="M 163.22 72.17 L 336.78 72.17 C 337.2416638827612 72.17540012949605 337.6145998705039 72.54833611723876 337.61999999999995 73.01 L 337.61999999999995 73.01 C 337.6145233125589 73.47000924160045 337.24004184092354 73.84003260047822 336.78 73.84 L 163.22 73.84 C 162.7599581590764 73.84003260047824 162.38547668744107 73.47000924160047 162.38 73.01 L 162.38 73.01 C 162.38540012949605 72.54833611723875 162.75833611723874 72.17540012949604 163.22 72.17 Z" stroke-linecap="round" />
</g>
		<g transform="matrix(1 0 0 1 79.75 -165.94)"  >
<path style="stroke: none; stroke-width: 1; stroke-dasharray: none; stroke-linecap: butt; stroke-dashoffset: 0; stroke-linejoin: miter; stroke-miterlimit: 4; fill: rgb(230,230,230); fill-rule: nonzero; opacity: 1;" vector-effect="non-scaling-stroke"  transform=" translate(-329.75, -75.34)" d="M 329.75 77.68 L 329.75 77.68 C 330.3701730059351 77.67451152886773 330.8700242857439 77.17019729120351 330.87 76.55000000000001 L 330.87 74.13 C 330.87266770761187 73.83122868370408 330.7558467853861 73.54377654592989 330.54551620263527 73.33156801154735 C 330.33518561988444 73.1193594771648 330.04878322570596 72.9999880903526 329.75 73 L 329.75 73 C 329.1298027087965 72.99997571425612 328.6254884711323 73.4998269940649 328.62 74.12 L 328.62 76.54 C 328.61997592598146 77.16571995733068 329.1243041162247 77.67451122890353 329.75 77.68 Z" stroke-linecap="round" />
</g>
		<g transform="matrix(1 0 0 1 -74.2 -165.94)"  >
<path style="stroke: none; stroke-width: 1; stroke-dasharray: none; stroke-linecap: butt; stroke-dashoffset: 0; stroke-linejoin: miter; stroke-miterlimit: 4; fill: rgb(230,230,230); fill-rule: nonzero; opacity: 1;" vector-effect="non-scaling-stroke"  transform=" translate(-175.8, -75.34)" d="M 175.8 77.68 L 175.8 77.68 C 176.42181826489616 77.67456896299036 176.92456896299038 77.17181826489617 176.93 76.55000000000001 L 176.93 74.13 C 176.93 73.5059182326912 176.4240817673088 73 175.8 73 L 175.8 73 C 175.5029575313797 73 175.21808114893287 73.11799966120927 175.00804040507109 73.32804040507106 C 174.79799966120927 73.53808114893286 174.68 73.82295753137971 174.68 74.12 L 174.68 76.54 C 174.6773360678817 76.83969812714558 174.79384192946148 77.1281784023123 175.0038851947752 77.34197244022089 C 175.21392846008888 77.55576647812947 175.50030166514853 77.67735953864931 175.8 77.68 Z" stroke-linecap="round" />
</g>
		<g transform="matrix(-1 0 0 -1 -5.45 -111.06)"  >
<rect style="stroke: none; stroke-width: 1; stroke-dasharray: none; stroke-linecap: butt; stroke-dashoffset: 0; stroke-linejoin: miter; stroke-miterlimit: 4; fill: rgb(224,224,224); fill-rule: nonzero; opacity: 0.6000000000000001;" vector-effect="non-scaling-stroke"  x="-81.065" y="-57.22" rx="0" ry="0" width="162.13" height="114.44" />
</g>
		<g transform="matrix(1 0 0 1 76.31 30.54)"  >
<rect style="stroke: none; stroke-width: 1; stroke-dasharray: none; stroke-linecap: butt; stroke-dashoffset: 0; stroke-linejoin: miter; stroke-miterlimit: 4; fill: rgb(250,250,250); fill-rule: nonzero; opacity: 1;" vector-effect="non-scaling-stroke"  x="-19.36" y="-11.85" rx="5.38" ry="5.38" width="38.72" height="23.7" />
</g>
		<g transform="matrix(1 0 0 1 76.31 16.85)"  >
<rect style="stroke: none; stroke-width: 1; stroke-dasharray: none; stroke-linecap: butt; stroke-dashoffset: 0; stroke-linejoin: miter; stroke-miterlimit: 4; fill: rgb(230,230,230); fill-rule: nonzero; opacity: 1;" vector-effect="non-scaling-stroke"  x="-19.36" y="-2.54" rx="1.81" ry="1.81" width="38.72" height="5.08" />
</g>
		<g transform="matrix(1 0 0 1 77.45 77.06)"  >
<path style="stroke: none; stroke-width: 1; stroke-dasharray: none; stroke-linecap: butt; stroke-dashoffset: 0; stroke-linejoin: miter; stroke-miterlimit: 4; fill: rgb(240,240,240); fill-rule: nonzero; opacity: 1;" vector-effect="non-scaling-stroke"  transform=" translate(-327.45, -318.34)" d="M 307.52 310 C 307.52 310 308.03 326.67 327.45 326.67 C 346.87 326.67 347.38 310 347.38 310 Z" stroke-linecap="round" />
</g>
		<g transform="matrix(1 0 0 1 121.73 77.06)"  >
<path style="stroke: none; stroke-width: 1; stroke-dasharray: none; stroke-linecap: butt; stroke-dashoffset: 0; stroke-linejoin: miter; stroke-miterlimit: 4; fill: rgb(240,240,240); fill-rule: nonzero; opacity: 1;" vector-effect="non-scaling-stroke"  transform=" translate(-371.73, -318.34)" d="M 351.8 310 C 351.8 310 352.31 326.67 371.73 326.67 C 391.15000000000003 326.67 391.66 310 391.66 310 Z" stroke-linecap="round" />
</g>
		<g transform="matrix(1 0 0 1 112.84 25.18)"  >
<rect style="stroke: none; stroke-width: 1; stroke-dasharray: none; stroke-linecap: butt; stroke-dashoffset: 0; stroke-linejoin: miter; stroke-miterlimit: 4; fill: rgb(240,240,240); fill-rule: nonzero; opacity: 1;" vector-effect="non-scaling-stroke"  x="-26.6" y="-17.22" rx="7.4" ry="7.4" width="53.2" height="34.44" />
</g>
		<g transform="matrix(1 0 0 1 112.84 5.43)"  >
<rect style="stroke: none; stroke-width: 1; stroke-dasharray: none; stroke-linecap: butt; stroke-dashoffset: 0; stroke-linejoin: miter; stroke-miterlimit: 4; fill: rgb(245,245,245); fill-rule: nonzero; opacity: 1;" vector-effect="non-scaling-stroke"  x="-26.6" y="-3.49" rx="2.48" ry="2.48" width="53.2" height="6.98" />
</g>
		<g transform="matrix(-1 0 0 -1 45.41 99.8)"  >
<rect style="stroke: none; stroke-width: 1; stroke-dasharray: none; stroke-linecap: butt; stroke-dashoffset: 0; stroke-linejoin: miter; stroke-miterlimit: 4; fill: rgb(230,230,230); fill-rule: nonzero; opacity: 1;" vector-effect="non-scaling-stroke"  x="-2.52" y="-41.32" rx="0" ry="0" width="5.04" height="82.64" />
</g>
		<g transform="matrix(1 0 0 1 174.78 50.43)"  >
<rect style="stroke: none; stroke-width: 1; stroke-dasharray: none; stroke-linecap: butt; stroke-dashoffset: 0; stroke-linejoin: miter; stroke-miterlimit: 4; fill: rgb(230,230,230); fill-rule: nonzero; opacity: 1;" vector-effect="non-scaling-stroke"  x="-13.645" y="-8.04" rx="0" ry="0" width="27.29" height="16.08" />
</g>
		<g transform="matrix(-1 0 0 -1 93.28 50.44)"  >
<rect style="stroke: none; stroke-width: 1; stroke-dasharray: none; stroke-linecap: butt; stroke-dashoffset: 0; stroke-linejoin: miter; stroke-miterlimit: 4; fill: rgb(245,245,245); fill-rule: nonzero; opacity: 1;" vector-effect="non-scaling-stroke"  x="-67.84" y="-8.04" rx="0" ry="0" width="135.68" height="16.08" />
</g>
		<g transform="matrix(1 0 0 1 174.78 93.38)"  >
<rect style="stroke: none; stroke-width: 1; stroke-dasharray: none; stroke-linecap: butt; stroke-dashoffset: 0; stroke-linejoin: miter; stroke-miterlimit: 4; fill: rgb(230,230,230); fill-rule: nonzero; opacity: 1;" vector-effect="non-scaling-stroke"  x="-13.645" y="-8.04" rx="0" ry="0" width="27.29" height="16.08" />
</g>
		<g transform="matrix(-1 0 0 -1 93.28 93.38)"  >
<rect style="stroke: none; stroke-width: 1; stroke-dasharray: none; stroke-linecap: butt; stroke-dashoffset: 0; stroke-linejoin: miter; stroke-miterlimit: 4; fill: rgb(245,245,245); fill-rule: nonzero; opacity: 1;" vector-effect="non-scaling-stroke"  x="-67.84" y="-8.04" rx="0" ry="0" width="135.68" height="16.08" />
</g>
		<g transform="matrix(-1 0 0 -1 181.09 99.8)"  >
<rect style="stroke: none; stroke-width: 1; stroke-dasharray: none; stroke-linecap: butt; stroke-dashoffset: 0; stroke-linejoin: miter; stroke-miterlimit: 4; fill: rgb(230,230,230); fill-rule: nonzero; opacity: 1;" vector-effect="non-scaling-stroke"  x="-2.52" y="-41.32" rx="0" ry="0" width="5.04" height="82.64" />
</g>
		<g transform="matrix(-1 0 0 -1 158.61 99.8)"  >
<rect style="stroke: none; stroke-width: 1; stroke-dasharray: none; stroke-linecap: butt; stroke-dashoffset: 0; stroke-linejoin: miter; stroke-miterlimit: 4; fill: rgb(245,245,245); fill-rule: nonzero; opacity: 1;" vector-effect="non-scaling-stroke"  x="-2.52" y="-41.32" rx="0" ry="0" width="5.04" height="82.64" />
</g>
		<g transform="matrix(-1 0 0 -1 27.96 99.8)"  >
<rect style="stroke: none; stroke-width: 1; stroke-dasharray: none; stroke-linecap: butt; stroke-dashoffset: 0; stroke-linejoin: miter; stroke-miterlimit: 4; fill: rgb(245,245,245); fill-rule: nonzero; opacity: 1;" vector-effect="non-scaling-stroke"  x="-2.52" y="-41.32" rx="0" ry="0" width="5.04" height="82.64" />
</g>
		<g transform="matrix(1 0 0 1 0 174.96)" id="freepik--path--inject-3"  >
<ellipse style="stroke: none; stroke-width: 1; stroke-dasharray: none; stroke-linecap: butt; stroke-dashoffset: 0; stroke-linejoin: miter; stroke-miterlimit: 4; fill: rgb(245,245,245); fill-rule: nonzero; opacity: 1;" vector-effect="non-scaling-stroke"  cx="0" cy="0" rx="193.89" ry="11.32" />
</g>
		<g transform="matrix(1 0 0 1 -59.49 5.81)"  >
<path style="stroke: none; stroke-width: 1; stroke-dasharray: none; stroke-linecap: butt; stroke-dashoffset: 0; stroke-linejoin: miter; stroke-miterlimit: 4; fill: rgb(64,123,255); fill-rule: nonzero; opacity: 1;" vector-effect="non-scaling-stroke"  transform=" translate(-190.51, -247.09)" d="M 260.41 365.5 L 132.84 365.5 C 128.584744591488 365.4396616519595 125.09606482097314 362.1079724711178 124.84 357.86 L 113.4 136.31 C 113.27178406380999 134.31780197129297 113.97994235178189 132.3623472136911 115.35405826211898 130.9142112474104 C 116.7281741724561 129.46607528112975 118.64381994616897 128.65638846543675 120.64 128.68 L 248.21 128.68 C 252.46361074208238 128.7351356372208 255.95365235188876 132.0637628225736 256.21000000000004 136.31 L 267.63000000000005 357.86 C 267.75778781390227 359.84959634496914 267.0525667279489 361.8027478341915 265.6832027332255 363.2517701222367 C 264.31383873850217 364.70079241028185 262.4036379068877 365.515206495882 260.41 365.5 Z" stroke-linecap="round" />
</g>
		<g transform="matrix(1 0 0 1 -59.49 5.81)"  >
<path style="stroke: none; stroke-width: 1; stroke-dasharray: none; stroke-linecap: butt; stroke-dashoffset: 0; stroke-linejoin: miter; stroke-miterlimit: 4; fill: rgb(255,255,255); fill-rule: nonzero; opacity: 0.8;" vector-effect="non-scaling-stroke"  transform=" translate(-190.51, -247.09)" d="M 260.41 365.5 L 132.84 365.5 C 128.584744591488 365.4396616519595 125.09606482097314 362.1079724711178 124.84 357.86 L 113.4 136.31 C 113.27178406380999 134.31780197129297 113.97994235178189 132.3623472136911 115.35405826211898 130.9142112474104 C 116.7281741724561 129.46607528112975 118.64381994616897 128.65638846543675 120.64 128.68 L 248.21 128.68 C 252.46361074208238 128.7351356372208 255.95365235188876 132.0637628225736 256.21000000000004 136.31 L 267.63000000000005 357.86 C 267.75778781390227 359.84959634496914 267.0525667279489 361.8027478341915 265.6832027332255 363.2517701222367 C 264.31383873850217 364.70079241028185 262.4036379068877 365.515206495882 260.41 365.5 Z" stroke-linecap="round" />
</g>
		<g transform="matrix(1 0 0 1 -21.44 -119.32)"  >
<rect style="stroke: none; stroke-width: 1; stroke-dasharray: none; stroke-linecap: butt; stroke-dashoffset: 0; stroke-linejoin: miter; stroke-miterlimit: 4; fill: rgb(64,123,255); fill-rule: nonzero; opacity: 1;" vector-effect="non-scaling-stroke"  x="-7.055" y="-0.5" rx="0" ry="0" width="14.11" height="1" />
</g>
		<g transform="matrix(1 0 0 1 -35.97 -119.32)"  >
<rect style="stroke: none; stroke-width: 1; stroke-dasharray: none; stroke-linecap: butt; stroke-dashoffset: 0; stroke-linejoin: miter; stroke-miterlimit: 4; fill: rgb(64,123,255); fill-rule: nonzero; opacity: 1;" vector-effect="non-scaling-stroke"  x="-2.585" y="-0.5" rx="0" ry="0" width="5.17" height="1" />
</g>
		<g transform="matrix(1 0 0 1 -50.94 -3.08)"  >
<path style="stroke: none; stroke-width: 1; stroke-dasharray: none; stroke-linecap: butt; stroke-dashoffset: 0; stroke-linejoin: miter; stroke-miterlimit: 4; fill: rgb(64,123,255); fill-rule: nonzero; opacity: 1;" vector-effect="non-scaling-stroke"  transform=" translate(-199.06, -238.2)" d="M 265.9 351.44 L 143.89999999999998 351.44 C 139.82415858047088 351.40056054425264 136.47161040747076 348.21825895816266 136.21999999999997 344.15 L 125.29999999999997 132.24999999999997 C 125.17731558807392 130.34342325411802 125.8552734419143 128.47205356765286 127.17064408249531 127.08645390297158 C 128.48601472307632 125.70085423829029 130.31962385895778 124.92656172779016 132.22999999999996 124.94999999999997 L 254.22999999999996 124.94999999999997 C 258.30559498720487 124.99500777116657 261.653704564481 128.18160489165103 261.9 132.24999999999997 L 272.82 344.15 C 272.94269350694947 346.05392271820443 272.2657936411847 347.92275325883537 270.95229669203167 349.30648053619467 C 269.6387997428786 350.6902078135539 267.80772789220003 351.46344574299104 265.9 351.44 Z" stroke-linecap="round" />
</g>
		<g transform="matrix(1 0 0 1 -50.92 -3.08)"  >
<path style="stroke: none; stroke-width: 1; stroke-dasharray: none; stroke-linecap: butt; stroke-dashoffset: 0; stroke-linejoin: miter; stroke-miterlimit: 4; fill: rgb(255,255,255); fill-rule: nonzero; opacity: 1;" vector-effect="non-scaling-stroke"  transform=" translate(-199.08, -238.2)" d="M 265.9 346.57 L 143.89999999999998 346.57 C 142.41898688852078 346.5191176063486 141.21092511310027 345.3669448098621 141.08999999999997 343.89 L 130.16 132 C 130.10993247973042 131.42986840178804 130.3065150425211 130.86560363822215 130.7 130.45 C 131.09459846256868 130.035340888289 131.64795527213144 129.80962955807263 132.22 129.82999999999998 L 254.22 129.82999999999998 C 255.69714179147724 129.88583298507436 256.89955919945737 131.03671821842676 257.02 132.51 L 268 344.4 C 268.04869359388937 344.96802845472104 267.85265702750144 345.52983924901804 267.46114881792516 345.9442650123256 C 267.0696406083489 346.3586907756332 266.51987763960756 346.58633607461934 265.95 346.57 Z M 132.22 130.08 C 131.717304583318 130.0637481717786 131.23096505408571 130.25973574326025 130.88 130.62 C 130.54262788359665 130.9932088813148 130.37278490446815 131.48828309707238 130.41 131.99 L 141.32999999999998 343.88 C 141.44515484932222 345.2228993559773 142.54312252271117 346.26939979467613 143.89 346.32 L 265.89 346.32 C 266.3903840849977 346.33977452756346 266.8750287418709 346.1430015089834 267.21999999999997 345.78 C 267.5660194415321 345.41194684305873 267.7372062826143 344.91295541267027 267.69 344.40999999999997 L 256.78 132.52 C 256.6696611958098 131.178689365316 255.574869943853 130.1311244026593 254.22999999999996 130.08 Z" stroke-linecap="round" />
</g>
		<g transform="matrix(0.7 -0.72 0.72 0.7 -53.92 -60.68)"  >
<ellipse style="stroke: none; stroke-width: 1; stroke-dasharray: none; stroke-linecap: butt; stroke-dashoffset: 0; stroke-linejoin: miter; stroke-miterlimit: 4; fill: rgb(255,255,255); fill-rule: nonzero; opacity: 0.30000000000000004;" vector-effect="non-scaling-stroke"  cx="0" cy="0" rx="36" ry="37.9" />
</g>
		<g transform="matrix(1 0 0 1 -53.89 -60.67)"  >
<path style="stroke: none; stroke-width: 1; stroke-dasharray: none; stroke-linecap: butt; stroke-dashoffset: 0; stroke-linejoin: miter; stroke-miterlimit: 4; fill: rgb(255,255,255); fill-rule: nonzero; opacity: 1;" vector-effect="non-scaling-stroke"  transform=" translate(-196.11, -180.61)" d="M 226 180.61 C 226.27983515717895 185.5242096187702 225.2915340533347 190.42783600160723 223.13 194.85 C 218.3549198959392 204.5296174752252 208.45274712142822 210.6139914022412 197.66 210.50000000000003 C 186.5117085098304 210.39959918731495 176.2329265431024 204.45931344952717 170.57999999999998 194.85000000000002 C 167.98997704226076 190.52994290661186 166.4997267583023 185.64027377214913 166.23999999999998 180.61 C 165.74156441700066 172.8114270379985 168.5142743441905 165.15770027787448 173.89190701556495 159.48784621221927 C 179.2695396869394 153.81799214656405 186.76598216538144 150.64453916497035 194.57999999999998 150.73000000000002 C 211.27067016676767 150.90394804150176 224.98818264810825 163.94911904539913 226 180.61 Z" stroke-linecap="round" />
</g>
		<g transform="matrix(1 0 0 1 -53.17 -42.6)"  >
<path style="stroke: none; stroke-width: 1; stroke-dasharray: none; stroke-linecap: butt; stroke-dashoffset: 0; stroke-linejoin: miter; stroke-miterlimit: 4; fill: rgb(64,123,255); fill-rule: nonzero; opacity: 1;" vector-effect="non-scaling-stroke"  transform=" translate(-196.82, -198.68)" d="M 223.1 194.85 C 218.32491989593922 204.52961747522517 208.42274712142822 210.61399140224117 197.63 210.5 C 186.4817085098304 210.39959918731492 176.20292654310242 204.45931344952714 170.55 194.85 C 178.14921131889375 189.60185247458372 187.1747716413587 186.80972244443214 196.41000000000003 186.85 C 205.8921842592667 186.88570927616354 215.16152782838643 189.66408127140363 223.09999999999997 194.85 Z" stroke-linecap="round" />
</g>
		<g transform="matrix(0.7 -0.72 0.72 0.7 -54.44 -70.9)"  >
<ellipse style="stroke: none; stroke-width: 1; stroke-dasharray: none; stroke-linecap: butt; stroke-dashoffset: 0; stroke-linejoin: miter; stroke-miterlimit: 4; fill: rgb(64,123,255); fill-rule: nonzero; opacity: 1;" vector-effect="non-scaling-stroke"  cx="0" cy="0" rx="12.97" ry="13.66" />
</g>
		<g transform="matrix(1 0 0 1 -49.87 17.64)"  >
<path style="stroke: none; stroke-width: 1; stroke-dasharray: none; stroke-linecap: butt; stroke-dashoffset: 0; stroke-linejoin: miter; stroke-miterlimit: 4; fill: rgb(255,255,255); fill-rule: nonzero; opacity: 1;" vector-effect="non-scaling-stroke"  transform=" translate(-200.13, -258.92)" d="M 248.41 269 L 152.88 269 C 151.15375078394115 268.9821982261789 149.73485295475854 267.63315382858684 149.63 265.91 L 148.91 251.91000000000003 C 148.85987360326 251.10494660227698 149.14730682015818 250.3153885823819 149.70325951323898 249.7309741473345 C 150.25921220631977 249.14655971228711 151.03344835670458 248.82009669080625 151.84 248.83 L 247.37 248.83 C 249.09263453312727 248.8474376240859 250.51012722616716 250.19078454548986 250.62 251.91000000000003 L 251.34 265.91 C 251.39303175278962 266.7167269683007 251.10689640849353 267.5089701588237 250.55061350713498 268.0956302834646 C 249.99433060577647 268.6822904081055 249.2184050124135 269.0101046569567 248.41 269 Z" stroke-linecap="round" />
</g>
		<g transform="matrix(1 0 0 1 -51.04 -4.78)"  >
<path style="stroke: none; stroke-width: 1; stroke-dasharray: none; stroke-linecap: butt; stroke-dashoffset: 0; stroke-linejoin: miter; stroke-miterlimit: 4; fill: rgb(0,0,0); fill-rule: nonzero; opacity: 0.30000000000000004;" vector-effect="non-scaling-stroke"  transform=" translate(-198.96, -236.5)" d="M 219.16 241.1 L 179.26 241.1 C 177.5262554620024 241.0870812010803 176.1000797132877 239.7309018081307 176 238 L 175.85 235 C 175.79696824721037 234.19327303169933 176.08310359150647 233.40102984117632 176.639386492865 232.81436971653542 C 177.19566939422353 232.22770959189452 177.97159498758649 231.8998953430433 178.78 231.91 L 218.67000000000002 231.91 C 220.3962492160589 231.9278017738211 221.81514704524147 233.27684617141318 221.92000000000002 235 L 222.08 238 C 222.12972668531552 238.80511949682793 221.8441804220751 239.59494281966045 221.29109218255599 240.1821255396979 C 220.73800394303686 240.76930825973534 219.96665221360252 241.10153417570132 219.16 241.1 Z" stroke-linecap="round" />
</g>
		<g transform="matrix(1 0 0 1 -46.33 86.32)"  >
<path style="stroke: none; stroke-width: 1; stroke-dasharray: none; stroke-linecap: butt; stroke-dashoffset: 0; stroke-linejoin: miter; stroke-miterlimit: 4; fill: rgb(0,0,0); fill-rule: nonzero; opacity: 0.30000000000000004;" vector-effect="non-scaling-stroke"  transform=" translate(-203.67, -327.6)" d="M 234 336.31 L 174.23 336.31 C 171.29425965948312 336.27383796979865 168.8829478894428 333.9802575158363 168.7 331.05 L 168.35 324.15000000000003 C 168.27863468992362 322.77947113307124 168.77374223910786 321.43985734740147 169.71927027264198 320.4451618561236 C 170.6647983061761 319.4504663648457 171.97761560235108 318.88814321319757 173.35 318.89000000000004 L 233.1 318.89000000000004 C 236.03574034051687 318.9261620302014 238.4470521105572 321.21974248416376 238.63 324.15000000000003 L 238.98 331.05 C 239.0511883121437 332.4170615100258 238.55876560901316 333.7535272536296 237.6176170440518 334.74759180216313 C 236.67646847909043 335.7416563506966 235.36890898860688 336.30637661882173 234 336.31 Z" stroke-linecap="round" />
</g>
		<g transform="matrix(1 0 0 1 -48.13 51.49)"  >
<path style="stroke: none; stroke-width: 1; stroke-dasharray: none; stroke-linecap: butt; stroke-dashoffset: 0; stroke-linejoin: miter; stroke-miterlimit: 4; fill: rgb(255,255,255); fill-rule: nonzero; opacity: 1;" vector-effect="non-scaling-stroke"  transform=" translate(-201.87, -292.77)" d="M 250.16 302.86 L 154.62 302.86 C 152.89571749493618 302.83735794153677 151.47958787492027 301.4909454720447 151.37 299.77000000000004 L 150.65 285.77000000000004 C 150.60002021877432 284.964046105681 150.88717825996713 284.17356222195275 151.4427964502777 283.587603106574 C 151.99841464058827 283.0016439911953 152.77252908667793 282.6729019412366 153.58 282.68000000000006 L 249.11 282.68000000000006 C 250.83624921605886 282.6978017738212 252.25514704524147 284.0468461714132 252.36 285.77000000000004 L 253.09 299.77000000000004 C 253.13696738863626 300.5751836008529 252.8488003738521 301.36393359771523 252.29383573943704 301.94920346813933 C 251.73887110502196 302.53447333856343 250.9665416932012 302.8641308359704 250.16 302.86 Z" stroke-linecap="round" />
</g>
		<g transform="matrix(1 0 0 1 -88.42 17.63)"  >
<path style="stroke: none; stroke-width: 1; stroke-dasharray: none; stroke-linecap: butt; stroke-dashoffset: 0; stroke-linejoin: miter; stroke-miterlimit: 4; fill: rgb(38,50,56); fill-rule: nonzero; opacity: 1;" vector-effect="non-scaling-stroke"  transform=" translate(-161.58, -258.91)" d="M 165 258.91 C 165.05565047909488 259.80332881404587 164.73695938635535 260.6795121733491 164.1203872191951 261.32833580771467 C 163.50381505203487 261.9771594420802 162.6450038687664 262.34007078553 161.75 262.33000000000004 C 159.8418665098184 262.30726790657184 158.27519953115316 260.81478850071244 158.16 258.91 C 158.10143743552254 258.01765168762154 158.41777349028254 257.14132387964173 159.0328014552255 256.4921276944242 C 159.64782942016845 255.8429315092066 160.50579115247805 255.4797227641685 161.4 255.49000000000004 C 163.31003133526875 255.5123787432129 164.87976469524668 257.00362543519196 165 258.91 Z" stroke-linecap="round" />
</g>
		<g transform="matrix(1 0 0 1 -77.89 17.63)"  >
<path style="stroke: none; stroke-width: 1; stroke-dasharray: none; stroke-linecap: butt; stroke-dashoffset: 0; stroke-linejoin: miter; stroke-miterlimit: 4; fill: rgb(38,50,56); fill-rule: nonzero; opacity: 1;" vector-effect="non-scaling-stroke"  transform=" translate(-172.11, -258.91)" d="M 175.53 258.91 C 175.58856256447748 259.8023483123785 175.27222650971748 260.6786761203583 174.65719854477453 261.3278723055759 C 174.04217057983158 261.97706849079344 173.18420884752197 262.34027723583154 172.29 262.33000000000004 C 170.3798850147323 262.31214532023705 168.81042390133342 260.81700409243086 168.7 258.91 C 168.64143743552253 258.01765168762154 168.95777349028253 257.14132387964173 169.5728014552255 256.4921276944242 C 170.18782942016844 255.8429315092066 171.04579115247805 255.4797227641685 171.94 255.49000000000004 C 173.85011498526768 255.50785467976303 175.41957609866657 257.0029959075692 175.53 258.91 Z" stroke-linecap="round" />
</g>
		<g transform="matrix(1 0 0 1 -67.42 17.63)"  >
<path style="stroke: none; stroke-width: 1; stroke-dasharray: none; stroke-linecap: butt; stroke-dashoffset: 0; stroke-linejoin: miter; stroke-miterlimit: 4; fill: rgb(38,50,56); fill-rule: nonzero; opacity: 1;" vector-effect="non-scaling-stroke"  transform=" translate(-182.58, -258.91)" d="M 186 258.91 C 186.05856256447748 259.8023483123785 185.74222650971748 260.6786761203583 185.12719854477453 261.3278723055759 C 184.51217057983158 261.97706849079344 183.65420884752197 262.34027723583154 182.76 262.33000000000004 C 180.84996866473122 262.3076212567872 179.2802353047533 260.8163745648081 179.16 258.91 C 179.10434952090512 258.0166711859542 179.42304061364464 257.14048782665094 180.0396127808049 256.4916641922854 C 180.65618494796516 255.84284055791986 181.5149961312336 255.47992921447008 182.41 255.49000000000004 C 184.3181334901816 255.51273209342827 185.8848004688468 257.0052114992876 186 258.91 Z" stroke-linecap="round" />
</g>
		<g transform="matrix(1 0 0 1 -56.87 17.63)"  >
<path style="stroke: none; stroke-width: 1; stroke-dasharray: none; stroke-linecap: butt; stroke-dashoffset: 0; stroke-linejoin: miter; stroke-miterlimit: 4; fill: rgb(38,50,56); fill-rule: nonzero; opacity: 1;" vector-effect="non-scaling-stroke"  transform=" translate(-193.13, -258.91)" d="M 196.55 258.91 C 196.6055143157493 259.80157688657886 196.28815618844533 260.6761484621308 195.67379147164598 261.32464455208566 C 195.0594267548466 261.97314064204056 194.2032738979601 262.3372751053564 193.31 262.33000000000004 C 191.39996866473123 262.3076212567872 189.8302353047533 260.8163745648081 189.71 258.91 C 189.65448568425072 258.0184231134212 189.9718438115547 257.14385153786924 190.58620852835406 256.4953554479144 C 191.2005732451534 255.84685935795952 192.05672610203993 255.4827248946437 192.95000000000002 255.49000000000004 C 194.86003133526876 255.5123787432129 196.4297646952467 257.00362543519196 196.55 258.91 Z" stroke-linecap="round" />
</g>
		<g transform="matrix(1 0 0 1 -86.65 51.47)"  >
<path style="stroke: none; stroke-width: 1; stroke-dasharray: none; stroke-linecap: butt; stroke-dashoffset: 0; stroke-linejoin: miter; stroke-miterlimit: 4; fill: rgb(38,50,56); fill-rule: nonzero; opacity: 1;" vector-effect="non-scaling-stroke"  transform=" translate(-163.35, -292.75)" d="M 166.77 292.75 C 166.8285625644775 293.6423483123785 166.5122265097175 294.5186761203583 165.89719854477454 295.1678723055759 C 165.2821705798316 295.8170684907934 164.42420884752198 296.1802772358315 163.53 296.17 C 161.61996866473123 296.14762125678715 160.0502353047533 294.65637456480806 159.93 292.75 C 159.87434952090513 291.85667118595416 160.19304061364465 290.9804878266509 160.8096127808049 290.33166419228536 C 161.42618494796514 289.6828405579198 162.2849961312336 289.31992921447005 163.18 289.33 C 165.0881334901816 289.3527320934282 166.65480046884684 290.8452114992876 166.77 292.75 Z" stroke-linecap="round" />
</g>
		<g transform="matrix(1 0 0 1 -76.14 51.47)"  >
<path style="stroke: none; stroke-width: 1; stroke-dasharray: none; stroke-linecap: butt; stroke-dashoffset: 0; stroke-linejoin: miter; stroke-miterlimit: 4; fill: rgb(38,50,56); fill-rule: nonzero; opacity: 1;" vector-effect="non-scaling-stroke"  transform=" translate(-173.86, -292.75)" d="M 177.28 292.75 C 177.3355143157493 293.64157688657883 177.01815618844532 294.5161484621308 176.40379147164597 295.16464455208563 C 175.7894267548466 295.81314064204054 174.93327389796008 296.1772751053564 174.04 296.17 C 172.12996866473122 296.14762125678715 170.5602353047533 294.65637456480806 170.44 292.75 C 170.3814374355225 291.8576516876215 170.69777349028251 290.9813238796417 171.31280145522547 290.3321276944241 C 171.92782942016842 289.6829315092066 172.78579115247803 289.3197227641685 173.68 289.33 C 175.59003133526878 289.35237874321285 177.1597646952467 290.84362543519194 177.28 292.75 Z" stroke-linecap="round" />
</g>
		<g transform="matrix(1 0 0 1 -65.63 51.47)"  >
<path style="stroke: none; stroke-width: 1; stroke-dasharray: none; stroke-linecap: butt; stroke-dashoffset: 0; stroke-linejoin: miter; stroke-miterlimit: 4; fill: rgb(38,50,56); fill-rule: nonzero; opacity: 1;" vector-effect="non-scaling-stroke"  transform=" translate(-184.37, -292.75)" d="M 187.79 292.75 C 187.84565047909487 293.64332881404584 187.52695938635534 294.5195121733491 186.9103872191951 295.16833580771464 C 186.29381505203486 295.8171594420802 185.4350038687664 296.18007078552995 184.54 296.17 C 182.6298850147323 296.152145320237 181.06042390133342 294.65700409243084 180.95 292.75 C 180.8914374355225 291.8576516876215 181.2077734902825 290.9813238796417 181.82280145522546 290.3321276944241 C 182.4378294201684 289.6829315092066 183.29579115247802 289.3197227641685 184.19 289.33 C 186.10003133526877 289.35237874321285 187.6697646952467 290.84362543519194 187.79 292.75 Z" stroke-linecap="round" />
</g>
		<g transform="matrix(1 0 0 1 -55.13 51.47)"  >
<path style="stroke: none; stroke-width: 1; stroke-dasharray: none; stroke-linecap: butt; stroke-dashoffset: 0; stroke-linejoin: miter; stroke-miterlimit: 4; fill: rgb(38,50,56); fill-rule: nonzero; opacity: 1;" vector-effect="non-scaling-stroke"  transform=" translate(-194.87, -292.75)" d="M 198.29 292.75 C 198.34856256447748 293.6423483123785 198.03222650971747 294.5186761203583 197.41719854477452 295.1678723055759 C 196.80217057983157 295.8170684907934 195.94420884752196 296.1802772358315 195.04999999999998 296.17 C 193.1399686647312 296.14762125678715 191.57023530475328 294.65637456480806 191.45 292.75 C 191.3943495209051 291.85667118595416 191.71304061364464 290.9804878266509 192.3296127808049 290.33166419228536 C 192.94618494796512 289.6828405579198 193.8049961312336 289.31992921447005 194.7 289.33 C 196.61011498526767 289.347854679763 198.17957609866656 290.84299590756916 198.29 292.75 Z" stroke-linecap="round" />
</g>
		<g transform="matrix(1 0 0 1 -44.62 51.47)"  >
<path style="stroke: none; stroke-width: 1; stroke-dasharray: none; stroke-linecap: butt; stroke-dashoffset: 0; stroke-linejoin: miter; stroke-miterlimit: 4; fill: rgb(38,50,56); fill-rule: nonzero; opacity: 1;" vector-effect="non-scaling-stroke"  transform=" translate(-205.38, -292.75)" d="M 208.8 292.75 C 208.8585625644775 293.6423483123785 208.5422265097175 294.5186761203583 207.92719854477454 295.1678723055759 C 207.3121705798316 295.8170684907934 206.45420884752198 296.1802772358315 205.56 296.17 C 203.64996866473123 296.14762125678715 202.0802353047533 294.65637456480806 201.96 292.75 C 201.90448568425072 291.85842311342117 202.2218438115547 290.9838515378692 202.83620852835404 290.33535544791437 C 203.4505732451534 289.68685935795946 204.30672610203993 289.3227248946436 205.20000000000002 289.33 C 207.1100313352688 289.35237874321285 208.67976469524672 290.84362543519194 208.8 292.75 Z" stroke-linecap="round" />
</g>
		<g transform="matrix(1 0 0 1 -34.11 51.47)"  >
<path style="stroke: none; stroke-width: 1; stroke-dasharray: none; stroke-linecap: butt; stroke-dashoffset: 0; stroke-linejoin: miter; stroke-miterlimit: 4; fill: rgb(38,50,56); fill-rule: nonzero; opacity: 1;" vector-effect="non-scaling-stroke"  transform=" translate(-215.89, -292.75)" d="M 219.31 292.75 C 219.36565047909488 293.64332881404584 219.04695938635535 294.5195121733491 218.4303872191951 295.16833580771464 C 217.81381505203487 295.8171594420802 216.9550038687664 296.18007078552995 216.06 296.17 C 214.1518665098184 296.1472679065718 212.58519953115317 294.6547885007124 212.47 292.75 C 212.41143743552252 291.8576516876215 212.72777349028252 290.9813238796417 213.34280145522547 290.3321276944241 C 213.95782942016842 289.6829315092066 214.81579115247803 289.3197227641685 215.71 289.33 C 217.62003133526878 289.35237874321285 219.1897646952467 290.84362543519194 219.31 292.75 Z" stroke-linecap="round" />
</g>
		<g transform="matrix(1 0 0 1 82.48 -41.09)"  >
<path style="stroke: none; stroke-width: 1; stroke-dasharray: none; stroke-linecap: butt; stroke-dashoffset: 0; stroke-linejoin: miter; stroke-miterlimit: 4; fill: rgb(128,62,60); fill-rule: nonzero; opacity: 1;" vector-effect="non-scaling-stroke"  transform=" translate(-332.48, -200.19)" d="M 333 176.62 C 333.25 177 333.38 177.20000000000002 333.54 177.47 L 333.99 178.21 C 334.28000000000003 178.71 334.54 179.21 334.79 179.70000000000002 C 335.29 180.70000000000002 335.79 181.70000000000002 336.19 182.70000000000002 C 337.0283001069208 184.6860807003021 337.7495354971783 186.71956381450022 338.35 188.79000000000002 C 339.5607126214631 192.8798866712334 340.35803877416373 197.08092446739565 340.73 201.33 L 340.8 202.12 C 340.8083717390535 202.2798904906019 340.8083717390535 202.4401095093981 340.8 202.6 L 340.8 203.13 C 340.8166316512879 203.82544299861837 340.7764985314375 204.5210837426927 340.68 205.21 C 340.48824260919787 206.48703413583806 340.1527806557855 207.73830722206634 339.68 208.94 C 338.8014751618424 211.08636870415032 337.63766550157044 213.1045357450844 336.22 214.94 C 333.5754731238042 218.326421210281 330.4371023150186 221.2962436405067 326.91 223.75 L 324.15000000000003 220.52 C 326.6614461447752 217.68350560972303 328.88564566245014 214.6051330845072 330.79 211.32999999999998 C 331.6469165171342 209.84424453427428 332.31858620288466 208.2591040759032 332.79 206.61 C 332.98094354790436 205.91152022507765 333.0916579898722 205.19355384383184 333.12 204.47000000000003 C 333.1508115151492 204.1607656044079 333.1508115151492 203.84923439559213 333.12 203.54000000000002 L 333.12 203.33 C 333.1300805950503 203.23693885880033 333.1300805950503 203.14306114119967 333.12 203.05 L 333 202.35000000000002 C 332.3569302499271 198.62313598143126 331.4479412699166 194.94707760638923 330.28 191.35 C 329.7 189.56000000000003 328.98999999999995 187.83 328.28 186.14000000000001 C 327.92999999999995 185.29000000000002 327.53 184.46 327.13 183.66000000000003 L 326.51 182.48000000000002 L 326.2 181.93 L 325.94 181.49 Z" stroke-linecap="round" />
</g>
		<g transform="matrix(1 0 0 1 76.94 -15.65)"  >
<path style="stroke: none; stroke-width: 1; stroke-dasharray: none; stroke-linecap: butt; stroke-dashoffset: 0; stroke-linejoin: miter; stroke-miterlimit: 4; fill: rgb(127,62,59); fill-rule: nonzero; opacity: 1;" vector-effect="non-scaling-stroke"  transform=" translate(-326.94, -225.63)" d="M 323.7 223.77 L 327.32 231.42000000000002 L 330.19 224.95000000000002 C 330.19 224.95000000000002 327.64 219.35000000000002 324.19 219.87 Z" stroke-linecap="round" />
</g>
		<g transform="matrix(1 0 0 1 80.06 -12.91)"  >
<polygon style="stroke: none; stroke-width: 1; stroke-dasharray: none; stroke-linecap: butt; stroke-dashoffset: 0; stroke-linejoin: miter; stroke-miterlimit: 4; fill: rgb(127,62,59); fill-rule: nonzero; opacity: 1;" vector-effect="non-scaling-stroke"  points="-0.14,3.43 2.74,-1.29 0.13,-3.43 -2.74,3.04 -0.14,3.43 " />
</g>
		<g transform="matrix(1 0 0 1 63.85 165.88)"  >
<path style="stroke: none; stroke-width: 1; stroke-dasharray: none; stroke-linecap: butt; stroke-dashoffset: 0; stroke-linejoin: miter; stroke-miterlimit: 4; fill: rgb(64,123,255); fill-rule: nonzero; opacity: 1;" vector-effect="non-scaling-stroke"  transform=" translate(-313.85, -407.16)" d="M 313.63 408.22 C 314.37872528601804 408.2012481031637 315.123152807577 408.10064978943956 315.85 407.92 C 315.9249147135539 407.8971674027889 315.982043055008 407.83623050523784 316 407.76 C 316.0124863533562 407.68136170942495 315.9771370713673 407.6028077494495 315.91 407.56 C 315.62 407.37 313.08000000000004 405.73 312.1 406.17 C 311.8789644150606 406.27320045156216 311.7301432473151 406.4868923847352 311.71000000000004 406.73 C 311.64846941059386 407.0973487213788 311.77191445186236 407.4714246040107 312.04 407.73 C 312.4933687091467 408.08011501158575 313.0581999791993 408.25418250990384 313.63 408.22 Z M 315.28 407.63000000000005 C 313.83 407.93000000000006 312.72999999999996 407.88000000000005 312.28 407.49000000000007 C 312.0933415380198 407.30472689722944 312.01415459090714 407.0369995998486 312.07 406.7800000000001 C 312.07 406.61000000000007 312.17 406.56000000000006 312.24 406.5300000000001 C 312.78 406.29 314.25 407 315.28 407.63 Z" stroke-linecap="round" />
</g>
		<g transform="matrix(1 0 0 1 64.78 164.76)"  >
<path style="stroke: none; stroke-width: 1; stroke-dasharray: none; stroke-linecap: butt; stroke-dashoffset: 0; stroke-linejoin: miter; stroke-miterlimit: 4; fill: rgb(64,123,255); fill-rule: nonzero; opacity: 1;" vector-effect="non-scaling-stroke"  transform=" translate(-314.78, -406.04)" d="M 315.8 407.92 L 315.90000000000003 407.92 C 315.9610880312061 407.8802653712701 315.99853597322505 407.812859075636 316.00000000000006 407.74 C 316.00000000000006 407.64 316.00000000000006 405.23 315.08000000000004 404.42 C 314.85152033456893 404.2146185596077 314.54455333640516 404.11960496493793 314.24000000000007 404.16 C 313.9150073687514 404.1626625017981 313.6359318406175 404.39175435325126 313.57000000000005 404.71000000000004 C 313.38000000000005 405.66 314.90000000000003 407.46000000000004 315.70000000000005 407.92 Z M 314.37 404.53000000000003 C 314.5335288232618 404.52537286140915 314.69206302355946 404.58662471152417 314.81 404.70000000000005 C 315.33756047997326 405.4777822710008 315.61015033258326 406.4003940798348 315.59 407.34000000000003 C 314.78999999999996 406.70000000000005 313.84 405.34000000000003 313.96 404.77000000000004 C 313.96 404.68000000000006 314.03 404.56000000000006 314.28 404.53000000000003 Z" stroke-linecap="round" />
</g>
		<g transform="matrix(1 0 0 1 51.67 163.6)"  >
<path style="stroke: none; stroke-width: 1; stroke-dasharray: none; stroke-linecap: butt; stroke-dashoffset: 0; stroke-linejoin: miter; stroke-miterlimit: 4; fill: rgb(64,123,255); fill-rule: nonzero; opacity: 1;" vector-effect="non-scaling-stroke"  transform=" translate(-301.67, -404.88)" d="M 304.19 404.14 C 304.23783198635743 404.0803385806056 304.249453071095 403.99939288508705 304.2203378231393 403.92868442576616 C 304.19122257518364 403.8579759664453 304.12597365249013 403.80868262692775 304.05 403.8 C 303.64 403.8 300.05 403.63 299.23 404.51 L 299.23 404.57 C 299.0920839279475 404.74604436558883 299.0578311676085 404.98200782570154 299.14000000000004 405.19 C 299.248484914089 405.5385713858393 299.52142861416075 405.8115150859111 299.87000000000006 405.92 C 301.0300000000001 406.28000000000003 303.08000000000004 404.97 304.20000000000005 404.16 Z M 299.53 404.77 C 299.97999999999996 404.28999999999996 301.96 404.15999999999997 303.44 404.18 C 301.89 405.24 300.6 405.74 299.95 405.54 C 299.71988204263374 405.47019669874425 299.53980330125574 405.29011795736625 299.46999999999997 405.06 C 299.42909594516726 404.98168609177196 299.42909594516726 404.88831390822804 299.46999999999997 404.81 Z" stroke-linecap="round" />
</g>
		<g transform="matrix(1 0 0 1 52.15 161.58)"  >
<path style="stroke: none; stroke-width: 1; stroke-dasharray: none; stroke-linecap: butt; stroke-dashoffset: 0; stroke-linejoin: miter; stroke-miterlimit: 4; fill: rgb(64,123,255); fill-rule: nonzero; opacity: 1;" vector-effect="non-scaling-stroke"  transform=" translate(-302.15, -402.86)" d="M 304.19 404.14 L 304.19 404.14 C 304.2205024643039 404.07682233456563 304.2205024643039 404.00317766543435 304.19 403.94 C 304.14 403.86 303.02 401.94 301.7 401.54 C 301.3169288312215 401.42775985975015 300.90453005099204 401.47840532398885 300.56 401.68 C 300.08 401.96 300.05 402.29 300.11 402.5 C 300.37 403.43 302.92 404.25 304.02000000000004 404.24 C 304.09030544740665 404.2388679197216 304.15485183327894 404.20089945744377 304.19 404.14 Z M 300.6 402.14 C 300.6564292822919 402.08462439538494 300.7203938002992 402.03749264527437 300.79 402 C 301.03987007381255 401.8406818045549 301.3475325362864 401.8003926725642 301.63 401.89 C 302.5 402.12 303.31 403.24 303.68 403.78999999999996 C 302.49 403.65999999999997 300.68 402.92999999999995 300.53000000000003 402.36999999999995 C 300.50402259795965 402.28319559634366 300.53142980719394 402.18922802182607 300.6 402.13 Z" stroke-linecap="round" />
</g>
		<g transform="matrix(1 0 0 1 57.1 -81.88)"  >
<path style="stroke: none; stroke-width: 1; stroke-dasharray: none; stroke-linecap: butt; stroke-dashoffset: 0; stroke-linejoin: miter; stroke-miterlimit: 4; fill: rgb(127,62,59); fill-rule: nonzero; opacity: 1;" vector-effect="non-scaling-stroke"  transform=" translate(-307.1, -159.4)" d="M 315.2 147.33 C 314.2 152.33 312.03999999999996 163.14000000000001 315.51 166.46 C 315.51 166.46 314.15 171.46 304.92 171.46 C 294.76 171.46 300.07 166.46 300.07 166.46 C 305.61 165.14000000000001 305.46999999999997 161.02 304.5 157.16 Z" stroke-linecap="round" />
</g>
		<g transform="matrix(1 0 0 1 46.99 -107.04)"  >
<path style="stroke: none; stroke-width: 1; stroke-dasharray: none; stroke-linecap: butt; stroke-dashoffset: 0; stroke-linejoin: miter; stroke-miterlimit: 4; fill: rgb(38,50,56); fill-rule: nonzero; opacity: 1;" vector-effect="non-scaling-stroke"  transform=" translate(-296.99, -134.24)" d="M 298.28 135.61 C 298.33629752449417 135.61914725236102 298.3937024755058 135.61914725236102 298.45 135.61 C 298.5459589251879 135.5627679101646 298.6190059172022 135.4790738707292 298.65282748670074 135.3776091622336 C 298.68664905619926 135.276144453738 298.6784278862491 135.1653610269811 298.63 135.07000000000002 C 298.08425634781565 133.91246407872103 297.01031733969984 133.092094003077 295.75 132.87000000000003 C 295.5338395056643 132.8519032578909 295.3409877082495 133.0053080967436 295.31 133.22000000000003 C 295.2865360852857 133.43775190913524 295.4425502298329 133.63388397656598 295.66 133.66000000000003 L 295.66 133.66000000000003 C 296.6547183657324 133.85095864213935 297.4962373791174 134.51002441810905 297.92 135.43000000000004 C 297.9988741950843 135.55040106375074 298.13635463194885 135.61914128218302 298.28 135.61 Z" stroke-linecap="round" />
</g>
		<g transform="matrix(1 0 0 1 43.79 -98.9)"  >
<path style="stroke: none; stroke-width: 1; stroke-dasharray: none; stroke-linecap: butt; stroke-dashoffset: 0; stroke-linejoin: miter; stroke-miterlimit: 4; fill: rgb(99,15,15); fill-rule: nonzero; opacity: 1;" vector-effect="non-scaling-stroke"  transform=" translate(-293.79, -142.38)" d="M 295.25 140 C 294.4628330955574 141.45975094943998 293.48046690920296 142.80545805403509 292.33 144 C 292.96036785196867 144.57676372128034 293.8123589705885 144.8473531752626 294.65999999999997 144.74 Z" stroke-linecap="round" />
</g>
		<g transform="matrix(1 0 0 1 45.21 -102.5)"  >
<path style="stroke: none; stroke-width: 1; stroke-dasharray: none; stroke-linecap: butt; stroke-dashoffset: 0; stroke-linejoin: miter; stroke-miterlimit: 4; fill: rgb(38,50,56); fill-rule: nonzero; opacity: 1;" vector-effect="non-scaling-stroke"  transform=" translate(-295.21, -138.78)" d="M 296 138.87 C 295.92 139.54 295.49 140.04 295.06 139.99 C 294.63 139.94000000000003 294.33 139.35000000000002 294.41 138.68 C 294.49000000000007 138.01 294.92 137.51000000000002 295.41 137.56 C 295.90000000000003 137.60999999999999 296.07 138.2 296 138.87 Z" stroke-linecap="round" />
</g>
		<g transform="matrix(1 0 0 1 44.77 -103.87)"  >
<path style="stroke: none; stroke-width: 1; stroke-dasharray: none; stroke-linecap: butt; stroke-dashoffset: 0; stroke-linejoin: miter; stroke-miterlimit: 4; fill: rgb(38,50,56); fill-rule: nonzero; opacity: 1;" vector-effect="non-scaling-stroke"  transform=" translate(-294.77, -137.41)" d="M 295.54 137.62 L 294 137 C 294 137 294.65 138.32 295.54 137.62 Z" stroke-linecap="round" />
</g>
		<g transform="matrix(1 0 0 1 56.46 152.53)"  >
<polygon style="stroke: none; stroke-width: 1; stroke-dasharray: none; stroke-linecap: butt; stroke-dashoffset: 0; stroke-linejoin: miter; stroke-miterlimit: 4; fill: rgb(127,62,59); fill-rule: nonzero; opacity: 1;" vector-effect="non-scaling-stroke"  points="6.56,8.43 -1.6,10.33 -6.56,-8.43 1.6,-10.33 6.56,8.43 " />
</g>
		<g transform="matrix(1 0 0 1 71.69 156.74)"  >
<polygon style="stroke: none; stroke-width: 1; stroke-dasharray: none; stroke-linecap: butt; stroke-dashoffset: 0; stroke-linejoin: miter; stroke-miterlimit: 4; fill: rgb(127,62,59); fill-rule: nonzero; opacity: 1;" vector-effect="non-scaling-stroke"  points="3.86,9.7 -4.51,9.7 -3.87,-9.69 4.51,-9.69 3.86,9.7 " />
</g>
		<g transform="matrix(1 0 0 1 66.04 170.23)"  >
<path style="stroke: none; stroke-width: 1; stroke-dasharray: none; stroke-linecap: butt; stroke-dashoffset: 0; stroke-linejoin: miter; stroke-miterlimit: 4; fill: rgb(38,50,56); fill-rule: nonzero; opacity: 1;" vector-effect="non-scaling-stroke"  transform=" translate(-316.04, -411.51)" d="M 316.5 406.75 L 325.91 406.75 C 326.24755561746224 406.74694244288094 326.5346686953119 406.99548809236273 326.58000000000004 407.33 L 327.65000000000003 414.77 C 327.6928786311382 415.1505735652804 327.5708670550697 415.531306818451 327.3147715573075 415.8160697226792 C 327.0586760595453 416.1008326269073 326.69297391234306 416.2624079167765 326.31000000000006 416.26 C 323.0300000000001 416.21 321.45000000000005 416.01 317.31000000000006 416.01 C 314.76000000000005 416.01 311.0400000000001 416.28 307.5300000000001 416.28 C 304.0200000000001 416.28 303.8200000000001 412.79999999999995 305.2900000000001 412.48999999999995 C 311.8500000000001 411.06999999999994 312.8900000000001 409.12999999999994 315.1000000000001 407.2699999999999 C 315.49044264596756 406.9364818935874 315.98650723746266 406.7522293310321 316.5 406.75 Z" stroke-linecap="round" />
</g>
		<g transform="matrix(1 0 0 1 56.18 166.35)"  >
<path style="stroke: none; stroke-width: 1; stroke-dasharray: none; stroke-linecap: butt; stroke-dashoffset: 0; stroke-linejoin: miter; stroke-miterlimit: 4; fill: rgb(38,50,56); fill-rule: nonzero; opacity: 1;" vector-effect="non-scaling-stroke"  transform=" translate(-306.18, -407.63)" d="M 304.14 402.89 L 312.69 398.96 C 312.9904589218881 398.81672672393523 313.3505849102802 398.9196198634758 313.53 399.2 L 317.61999999999995 405.52 C 317.8131317264129 405.84893326550656 317.85809792451226 406.24421751885603 317.7437814213772 406.6081250538358 C 317.6294649182422 406.9720325888156 317.36653613287075 407.27059590494906 317.0199999999999 407.43 C 314.0199999999999 408.75 312.49999999999994 409.24 308.73999999999995 410.97 C 306.42999999999995 412.03000000000003 301.73999999999995 414.47 298.55999999999995 415.97 C 295.37999999999994 417.47 293.73999999999995 414.36 294.93999999999994 413.46000000000004 C 300.30999999999995 409.46000000000004 301.84999999999997 406.59000000000003 303.0799999999999 403.98 C 303.28800002669294 403.4991656988475 303.6651564210834 403.11133506688003 304.14 402.89 Z" stroke-linecap="round" />
</g>
		<g transform="matrix(1 0 0 1 55.26 148.18)"  >
<polygon style="stroke: none; stroke-width: 1; stroke-dasharray: none; stroke-linecap: butt; stroke-dashoffset: 0; stroke-linejoin: miter; stroke-miterlimit: 4; fill: rgb(0,0,0); fill-rule: nonzero; opacity: 0.2;" vector-effect="non-scaling-stroke"  points="-5.36,-4.08 -2.7,5.98 5.36,3.69 2.81,-5.98 -5.36,-4.08 " />
</g>
		<g transform="matrix(1 0 0 1 71.84 152.05)"  >
<polygon style="stroke: none; stroke-width: 1; stroke-dasharray: none; stroke-linecap: butt; stroke-dashoffset: 0; stroke-linejoin: miter; stroke-miterlimit: 4; fill: rgb(0,0,0); fill-rule: nonzero; opacity: 0.2;" vector-effect="non-scaling-stroke"  points="4.35,-5 -4.03,-5 -4.36,5 4.02,5 4.35,-5 " />
</g>
		<g transform="matrix(1 0 0 1 78.92 -61.11)"  >
<path style="stroke: none; stroke-width: 1; stroke-dasharray: none; stroke-linecap: butt; stroke-dashoffset: 0; stroke-linejoin: miter; stroke-miterlimit: 4; fill: rgb(38,50,56); fill-rule: nonzero; opacity: 1;" vector-effect="non-scaling-stroke"  transform=" translate(-328.92, -180.17)" d="M 330 168.36 C 333.48 169.13000000000002 337.2 181.64000000000001 337.2 181.64000000000001 L 327.36 192.11 C 327.36 192.11 319.19 180.35000000000002 320.86 176.03000000000003 C 322.55 171.52 325.85 167.46 330 168.36 Z" stroke-linecap="round" />
</g>
		<g transform="matrix(1 0 0 1 73.96 -58.16)"  >
<path style="stroke: none; stroke-width: 1; stroke-dasharray: none; stroke-linecap: butt; stroke-dashoffset: 0; stroke-linejoin: miter; stroke-miterlimit: 4; fill: rgb(0,0,0); fill-rule: nonzero; opacity: 0.4;" vector-effect="non-scaling-stroke"  transform=" translate(-323.96, -183.12)" d="M 324.44 176.33 C 322.68 174.72 321.49 175.20000000000002 320.68 176.48000000000002 C 319.88 180.20000000000002 324.62 187.99 326.53000000000003 190.94000000000003 C 327.41 187.42 328.42 180 324.44 176.33 Z" stroke-linecap="round" />
</g>
		<g transform="matrix(1 0 0 1 57.41 -48.61)"  >
<path style="stroke: none; stroke-width: 1; stroke-dasharray: none; stroke-linecap: butt; stroke-dashoffset: 0; stroke-linejoin: miter; stroke-miterlimit: 4; fill: rgb(38,50,56); fill-rule: nonzero; opacity: 1;" vector-effect="non-scaling-stroke"  transform=" translate(-307.41, -192.67)" d="M 285.91 168.61 C 285.91 168.61 281.91 170.01000000000002 289.91 219.16000000000003 L 323.91 219.16000000000003 C 323.34000000000003 205.32000000000002 323.32000000000005 196.78000000000003 329.91 168.36 C 325.14579327256286 167.37702212756744 320.3163752316598 166.74201214295044 315.46000000000004 166.46000000000004 C 310.319998580144 166.0895742795899 305.16000141985603 166.0895742795899 300.02 166.46 C 293.43 167.07 285.91 168.61 285.91 168.61 Z" stroke-linecap="round" />
</g>
		<g transform="matrix(1 0 0 1 38.25 -52.59)"  >
<path style="stroke: none; stroke-width: 1; stroke-dasharray: none; stroke-linecap: butt; stroke-dashoffset: 0; stroke-linejoin: miter; stroke-miterlimit: 4; fill: rgb(0,0,0); fill-rule: nonzero; opacity: 0.4;" vector-effect="non-scaling-stroke"  transform=" translate(-288.25, -188.69)" d="M 285.6 187.47 C 285.82000000000005 189.85999999999999 286.11 192.55 286.49 195.59 C 289.28000000000003 193.08 291.56 185.94 290.72 181.78 C 288.72678656854356 183.3977826718006 286.9991943206059 185.31770452546567 285.6 187.47000000000003 Z" stroke-linecap="round" />
</g>
		<g transform="matrix(1 0 0 1 16.81 -46.16)"  >
<path style="stroke: none; stroke-width: 1; stroke-dasharray: none; stroke-linecap: butt; stroke-dashoffset: 0; stroke-linejoin: miter; stroke-miterlimit: 4; fill: rgb(128,62,60); fill-rule: nonzero; opacity: 1;" vector-effect="non-scaling-stroke"  transform=" translate(-266.81, -195.12)" d="M 289.24 180 C 287.405338050003 184.6176713802721 285.3393904631573 189.1400606858875 283.05000000000007 193.55 C 280.7870191469595 198.11915205557568 278.10910145060296 202.4707683121551 275.05 206.55 L 274.41 207.34 L 274.09000000000003 207.73 C 273.98 207.85999999999999 273.89000000000004 207.98 273.72 208.16 C 273.1182563112604 208.8165672671415 272.44774558518304 209.40661670608955 271.72 209.92 C 270.43369827430166 210.81032588671744 269.0259268062913 211.51084374639723 267.54 212 C 264.9485096728664 212.82764843901978 262.25802267884114 213.30520988045927 259.54 213.42 C 254.44967315323072 213.62238932548843 249.3544681748123 213.16866064996964 244.38000000000002 212.07 L 244.93000000000004 207.87 C 247.23000000000005 207.87 249.64000000000004 207.87 251.93000000000004 207.68 C 254.23002981227407 207.5668514917599 256.5209789857666 207.3130437116062 258.79 206.92000000000002 C 260.89741958430454 206.59119958081556 262.95845501018033 206.0138411227526 264.93 205.20000000000002 C 265.7262333806608 204.8599064336319 266.47028834063565 204.4087599873123 267.14 203.86 C 267.39557568048014 203.64588850593748 267.62695291179864 203.40445139499644 267.83 203.14000000000001 C 267.83 203.14000000000001 267.95 202.98000000000002 268.03 202.87 L 268.26 202.54 L 268.73 201.88 C 271.2392821930962 198.00404718471867 273.4747239197309 193.95753009809 275.42 189.76999999999998 C 277.42 185.51999999999998 279.42 181.10999999999999 281.25 176.76999999999998 Z" stroke-linecap="round" />
</g>
		<g transform="matrix(1 0 0 1 36.07 -60.24)"  >
<path style="stroke: none; stroke-width: 1; stroke-dasharray: none; stroke-linecap: butt; stroke-dashoffset: 0; stroke-linejoin: miter; stroke-miterlimit: 4; fill: rgb(38,50,56); fill-rule: nonzero; opacity: 1;" vector-effect="non-scaling-stroke"  transform=" translate(-286.07, -181.04)" d="M 285.91 168.61 C 281.74 169.61 276.62 181.05 276.62 181.05 L 285.26 193.75 C 285.26 193.75 296.77 179.26 295.4 174.84 C 294 170.23 291 167.37 285.91 168.61 Z" stroke-linecap="round" />
</g>
		<g transform="matrix(1 0 0 1 -6.1 -32.12)"  >
<path style="stroke: none; stroke-width: 1; stroke-dasharray: none; stroke-linecap: butt; stroke-dashoffset: 0; stroke-linejoin: miter; stroke-miterlimit: 4; fill: rgb(127,62,59); fill-rule: nonzero; opacity: 1;" vector-effect="non-scaling-stroke"  transform=" translate(-243.9, -209.16)" d="M 247.33 208.51 L 240.12 205.17999999999998 L 239.4 212.34999999999997 C 239.4 212.34999999999997 245.4 214.11999999999998 248.4 212.34999999999997 Z" stroke-linecap="round" />
</g>
		<g transform="matrix(1 0 0 1 -12.38 -32.88)"  >
<polygon style="stroke: none; stroke-width: 1; stroke-dasharray: none; stroke-linecap: butt; stroke-dashoffset: 0; stroke-linejoin: miter; stroke-miterlimit: 4; fill: rgb(127,62,59); fill-rule: nonzero; opacity: 1;" vector-effect="non-scaling-stroke"  points="-1.81,-3.94 -2.5,1.51 1.78,3.94 2.5,-3.22 -1.81,-3.94 " />
</g>
		<g transform="matrix(1 0 0 1 56.67 -99.68)"  >
<path style="stroke: none; stroke-width: 1; stroke-dasharray: none; stroke-linecap: butt; stroke-dashoffset: 0; stroke-linejoin: miter; stroke-miterlimit: 4; fill: rgb(127,62,59); fill-rule: nonzero; opacity: 1;" vector-effect="non-scaling-stroke"  transform=" translate(-306.67, -141.6)" d="M 318.82 139.36 C 317.29 147.53 316.82 151.03 312.14 154.74 C 305.14 160.32000000000002 295.39 156.66 294.45 148.20000000000002 C 293.59 140.58 296.22999999999996 128.50000000000003 304.7 126.20000000000002 C 308.49382820130535 125.15332739908511 312.55903724826663 126.15037172350092 315.4380490871265 128.8336433806819 C 318.3170609259863 131.51691503786287 319.5973994060809 135.50198158143965 318.82 139.36 Z" stroke-linecap="round" />
</g>
		<g transform="matrix(1 0 0 1 62.02 -102.59)"  >
<path style="stroke: none; stroke-width: 1; stroke-dasharray: none; stroke-linecap: butt; stroke-dashoffset: 0; stroke-linejoin: miter; stroke-miterlimit: 4; fill: rgb(38,50,56); fill-rule: nonzero; opacity: 1;" vector-effect="non-scaling-stroke"  transform=" translate(-312.02, -138.69)" d="M 300.87 141.08 C 300.4 145.25 300.22 156.08 309.38 156.42000000000002 C 320.59 156.83 323.95 147.25000000000003 322.95 143.42000000000002 C 328.78999999999996 138.67000000000002 329.63 130.50000000000003 323.07 124.25000000000001 C 316.51 118 302.07 121.49000000000001 298.07 127.58000000000001 C 293 135.13 300.87 141.08 300.87 141.08 Z" stroke-linecap="round" />
</g>
		<g transform="matrix(1 0 0 1 70.56 -114.09)"  >
<path style="stroke: none; stroke-width: 1; stroke-dasharray: none; stroke-linecap: butt; stroke-dashoffset: 0; stroke-linejoin: miter; stroke-miterlimit: 4; fill: rgb(64,123,255); fill-rule: nonzero; opacity: 1;" vector-effect="non-scaling-stroke"  transform=" translate(-320.56, -127.19)" d="M 312.1 126.68 C 311.56 122.28 311.98 119.25 316.1 119.25 C 320.22 119.25 325.84000000000003 120.74 327.90000000000003 124.95 C 329.96000000000004 129.16000000000003 330.13000000000005 135.75 324.38000000000005 135.08 C 318.63000000000005 134.41000000000003 312.75 131.94 312.1 126.68 Z" stroke-linecap="round" />
</g>
		<g transform="matrix(1 0 0 1 81.36 -123.9)"  >
<path style="stroke: none; stroke-width: 1; stroke-dasharray: none; stroke-linecap: butt; stroke-dashoffset: 0; stroke-linejoin: miter; stroke-miterlimit: 4; fill: rgb(38,50,56); fill-rule: nonzero; opacity: 1;" vector-effect="non-scaling-stroke"  transform=" translate(-331.36, -117.38)" d="M 318.48 125.62 C 317.48 120.38000000000001 322.17 105.62 333.56 104.62 C 338.84 104.17 341.28000000000003 109.85000000000001 338.56 110.79 C 343.56 110.73 346.76 117.34 342.1 118.33000000000001 C 345.78000000000003 120.69000000000001 344.87 125.53000000000002 339.62 127.91000000000001 C 335.71 129.71 319.83 132.88 318.48 125.62 Z" stroke-linecap="round" />
</g>
		<g transform="matrix(1 0 0 1 81.72 -115.39)"  >
<path style="stroke: none; stroke-width: 1; stroke-dasharray: none; stroke-linecap: butt; stroke-dashoffset: 0; stroke-linejoin: miter; stroke-miterlimit: 4; fill: rgb(38,50,56); fill-rule: nonzero; opacity: 1;" vector-effect="non-scaling-stroke"  transform=" translate(-331.72, -125.89)" d="M 330.65 131.25 C 326.97999999999996 131.25 323.15 130.71 320.77 129.12 C 319.4199602957407 128.30615692482124 318.54504737682953 126.89140411977348 318.41999999999996 125.32000000000001 C 318.41385076553087 125.18355980087186 318.5143175085763 125.06562058077502 318.65 125.05000000000001 C 318.7169583098946 125.04152498072504 318.7843904582625 125.0616353355527 318.8357686876333 125.10540197538703 C 318.887146917004 125.14916861522136 318.9177220285855 125.21254592627653 318.91999999999996 125.28000000000002 C 319.042201502558 126.69764745119576 319.83350190979564 127.97190115862541 321.04999999999995 128.71 C 325.5799999999999 131.71 336.04999999999995 130.71 339.30999999999995 129.71 C 342.12999999999994 128.79000000000002 344.03999999999996 127.00000000000001 344.41999999999996 124.94000000000001 C 344.6615878122415 123.39849851665261 344.0159655734942 121.8520979448027 342.74999999999994 120.94000000000001 C 342.7016613871032 120.89463333422776 342.6742406770565 120.83129295482989 342.6742406770565 120.76500000000001 C 342.6742406770565 120.69870704517014 342.7016613871032 120.63536666577227 342.74999999999994 120.59000000000002 C 342.8472108775496 120.49471428095143 343.0027891224503 120.49471428095143 343.09999999999997 120.59000000000002 C 344.5236165995449 121.62871961855883 345.2394988405571 123.38166370060485 344.95 125.12000000000002 C 344.53999999999996 127.37000000000002 342.51 129.29000000000002 339.51 130.27 C 336.61526798438587 130.99968626319722 333.6342265854176 131.32941770461807 330.65 131.25 Z" stroke-linecap="round" />
</g>
		<g transform="matrix(1 0 0 1 50.18 -98.79)"  >
<path style="stroke: none; stroke-width: 1; stroke-dasharray: none; stroke-linecap: butt; stroke-dashoffset: 0; stroke-linejoin: miter; stroke-miterlimit: 4; fill: rgb(127,62,59); fill-rule: nonzero; opacity: 1;" vector-effect="non-scaling-stroke"  transform=" translate(-300.18, -142.49)" d="M 298.32 140 C 297.3887781687874 141.30624472913212 297.0048103832559 142.9246510027274 297.25 144.51 C 297.58 146.60999999999999 299.62 146.75 301.1 145.41 C 302.58000000000004 144.07 303.87 141.65 302.78000000000003 139.91 C 302.2874597366007 139.1457472813353 301.4339067100582 138.69149152633744 300.5248733570367 138.70983524870783 C 299.61584000401524 138.72817897107822 298.7813075696999 139.2164992308916 298.32 140 Z" stroke-linecap="round" />
</g>
		<g transform="matrix(1 0 0 1 64.49 66.49)"  >
<path style="stroke: none; stroke-width: 1; stroke-dasharray: none; stroke-linecap: butt; stroke-dashoffset: 0; stroke-linejoin: miter; stroke-miterlimit: 4; fill: rgb(64,123,255); fill-rule: nonzero; opacity: 1;" vector-effect="non-scaling-stroke"  transform=" translate(-314.49, -307.77)" d="M 298.89 219.16 C 298.89 219.16 303.75 276.65 308.8 309.05 C 312.87 335.22 316.09000000000003 396.39 316.09000000000003 396.39 L 327.51000000000005 396.39 C 327.51000000000005 396.39 331.57000000000005 337.04999999999995 329.51000000000005 311.16999999999996 C 324.28000000000003 245.66999999999996 335.95000000000005 240.32999999999996 323.94000000000005 219.16999999999996 Z" stroke-linecap="round" />
</g>
		<g transform="matrix(1 0 0 1 58.48 27.66)"  >
<path style="stroke: none; stroke-width: 1; stroke-dasharray: none; stroke-linecap: butt; stroke-dashoffset: 0; stroke-linejoin: miter; stroke-miterlimit: 4; fill: rgb(0,0,0); fill-rule: nonzero; opacity: 0.4;" vector-effect="non-scaling-stroke"  transform=" translate(-308.48, -268.94)" d="M 313.27 240.89 C 308.74419924572766 245.64011942469 305.09159260879653 251.1511885673442 302.47999999999996 257.16999999999996 C 303.80999999999995 270.09 305.39 284.42999999999995 307.06999999999994 296.98999999999995 C 313.9635521749177 279.1433175002182 316.1000666993143 259.81130704559706 313.27 240.89 Z" stroke-linecap="round" />
</g>
		<g transform="matrix(1 0 0 1 49.39 63.81)"  >
<path style="stroke: none; stroke-width: 1; stroke-dasharray: none; stroke-linecap: butt; stroke-dashoffset: 0; stroke-linejoin: miter; stroke-miterlimit: 4; fill: rgb(64,123,255); fill-rule: nonzero; opacity: 1;" vector-effect="non-scaling-stroke"  transform=" translate(-299.39, -305.09)" d="M 290.9 218.8 C 290.9 218.8 280.34999999999997 281.59000000000003 278.69 309.89 C 282.83 336.06 299.77 391.38 299.77 391.38 L 310.15999999999997 387.61 C 310.15999999999997 387.61 304.40999999999997 327.29 298.15999999999997 310.78000000000003 C 312.22999999999996 263.41 322.57 251.43000000000004 319.55999999999995 219.16000000000003 C 312.35 219.16 290.9 218.8 290.9 218.8 Z" stroke-linecap="round" />
</g>
		<g transform="matrix(1 0 0 1 54.5 148.16)"  >
<polygon style="stroke: none; stroke-width: 1; stroke-dasharray: none; stroke-linecap: butt; stroke-dashoffset: 0; stroke-linejoin: miter; stroke-miterlimit: 4; fill: rgb(38,50,56); fill-rule: nonzero; opacity: 1;" vector-effect="non-scaling-stroke"  points="-6.13,4.7 7.92,0.89 7.12,-4.7 -7.92,-0.63 -6.13,4.7 " />
</g>
		<g transform="matrix(1 0 0 1 72.13 152.53)"  >
<polygon style="stroke: none; stroke-width: 1; stroke-dasharray: none; stroke-linecap: butt; stroke-dashoffset: 0; stroke-linejoin: miter; stroke-miterlimit: 4; fill: rgb(38,50,56); fill-rule: nonzero; opacity: 1;" vector-effect="non-scaling-stroke"  points="-7.62,2.81 6.94,2.81 7.69,-2.29 -7.69,-2.81 -7.62,2.81 " />
</g>
		<g transform="matrix(1 0 0 1 57.42 -22.46)"  >
<path style="stroke: none; stroke-width: 1; stroke-dasharray: none; stroke-linecap: butt; stroke-dashoffset: 0; stroke-linejoin: miter; stroke-miterlimit: 4; fill: rgb(64,123,255); fill-rule: nonzero; opacity: 1;" vector-effect="non-scaling-stroke"  transform=" translate(-307.42, -218.82)" d="M 324.44 217.16 L 325.96999999999997 220.21 C 326.09 220.45000000000002 325.80999999999995 220.69 325.41999999999996 220.69 L 289.74 220.69 C 289.44 220.69 289.18 220.54 289.16 220.34 L 288.85 217.34 C 288.85 217.13 289.1 216.95000000000002 289.43 216.95000000000002 L 323.88 216.95000000000002 C 324.0901136773111 216.92128668103067 324.30057516518383 217.00020973898293 324.44 217.16 Z" stroke-linecap="round" />
</g>
		<g transform="matrix(1 0 0 1 57.42 -22.46)"  >
<path style="stroke: none; stroke-width: 1; stroke-dasharray: none; stroke-linecap: butt; stroke-dashoffset: 0; stroke-linejoin: miter; stroke-miterlimit: 4; fill: rgb(0,0,0); fill-rule: nonzero; opacity: 0.5;" vector-effect="non-scaling-stroke"  transform=" translate(-307.42, -218.82)" d="M 324.44 217.16 L 325.96999999999997 220.21 C 326.09 220.45000000000002 325.80999999999995 220.69 325.41999999999996 220.69 L 289.74 220.69 C 289.44 220.69 289.18 220.54 289.16 220.34 L 288.85 217.34 C 288.85 217.13 289.1 216.95000000000002 289.43 216.95000000000002 L 323.88 216.95000000000002 C 324.0901136773111 216.92128668103067 324.30057516518383 217.00020973898293 324.44 217.16 Z" stroke-linecap="round" />
</g>
		<g transform="matrix(1 0 0 1 70.03 -22.49)"  >
<path style="stroke: none; stroke-width: 1; stroke-dasharray: none; stroke-linecap: butt; stroke-dashoffset: 0; stroke-linejoin: miter; stroke-miterlimit: 4; fill: rgb(64,123,255); fill-rule: nonzero; opacity: 1;" vector-effect="non-scaling-stroke"  transform=" translate(-320.03, -218.79)" d="M 319.81 221 L 320.73 221 C 320.92 221 321.06 220.9 321.05 220.79 L 320.61 216.79 C 320.61 216.67 320.44 216.57999999999998 320.26 216.57999999999998 L 319.33 216.57999999999998 C 319.15 216.57999999999998 319.01 216.67 319.02 216.79 L 319.45 220.79 C 319.47 220.92 319.63 221 319.81 221 Z" stroke-linecap="round" />
</g>
		<g transform="matrix(1 0 0 1 57.56 -62.08)"  >
<path style="stroke: none; stroke-width: 1; stroke-dasharray: none; stroke-linecap: butt; stroke-dashoffset: 0; stroke-linejoin: miter; stroke-miterlimit: 4; fill: rgb(64,123,255); fill-rule: nonzero; opacity: 1;" vector-effect="non-scaling-stroke"  transform=" translate(-307.56, -179.2)" d="M 307.43 191.88 C 307.20351357203805 191.87655277776648 307.00531395795105 191.72689184468035 306.94 191.51 C 303.68 179.45 296.94 169.51 293.67 168.01 C 293.4158825853809 167.85395735356937 293.1107388230511 167.80369838095035 292.82 167.87 C 292.6554507237447 167.9567133549399 292.4563679532171 167.9449206890492 292.30320638509494 167.8393877354687 C 292.15004481697275 167.73385478188823 292.06812200457443 167.5520261007114 292.09054515755463 167.36738354751336 C 292.11296831053477 167.1827409943153 292.2360308895958 167.02580591817042 292.40999999999997 166.96 C 292.96327229456915 166.75684218033274 293.5779851693008 166.80806825322702 294.09 167.1 C 297.54999999999995 168.73999999999998 304.39 178.54 307.81 190.87 C 310.26 190.87 314.04 190.54 314.96 190.46 C 316.09999999999997 189.1 324.47999999999996 178.62 321.34999999999997 167.15 C 321.3134473675425 167.022637205723 321.3300338891731 166.88590031212502 321.39597720744035 166.7709705288592 C 321.4619205257076 166.6560407455934 321.5715983618729 166.5727169013186 321.7 166.54 C 321.96488962264453 166.4697921881282 322.23693547484265 166.62588407053698 322.31 166.89 C 325.8 179.64999999999998 315.68 191.16 315.57 191.26999999999998 C 315.49108474993966 191.36806143910866 315.3754330194551 191.42950142092855 315.25 191.43999999999997 C 315.2 191.44 310.21 191.88 307.43 191.88 Z" stroke-linecap="round" />
</g>
		<g transform="matrix(1 0 0 1 65.38 -40.67)"  >
<path style="stroke: none; stroke-width: 1; stroke-dasharray: none; stroke-linecap: butt; stroke-dashoffset: 0; stroke-linejoin: miter; stroke-miterlimit: 4; fill: rgb(64,123,255); fill-rule: nonzero; opacity: 1;" vector-effect="non-scaling-stroke"  transform=" translate(-315.38, -200.61)" d="M 324 198.94 C 318.55 188.73 316.32 188.01 315.35 184.73 C 316.0849058919647 182.89584185984305 317.133943927549 181.20384502825542 318.45000000000005 179.73 C 317.79 179.54 316.37000000000006 179.26 315.45000000000005 179.09 C 315.55000000000007 178.64000000000001 315.66 178.20000000000002 315.76000000000005 177.77 C 314.75888034872037 177.65798293044483 313.74633648697574 177.70523497732626 312.76000000000005 177.91 L 312.76000000000005 176.91 C 311.4897554140228 176.63364137610108 310.18524381227604 176.54937060079445 308.89000000000004 176.66 Q 309.06000000000006 177.37 309.22 178.1 C 308.22 178.29 306.70000000000005 178.6 305.97 178.81 C 307.3884942615465 180.41656531723183 308.4304958406303 182.31949934854214 309.02000000000004 184.38 C 306.08000000000004 189.43 294.66 221.89 313.24000000000007 224.38 C 331.8200000000001 226.87 329.44 209.16 324 198.94 Z" stroke-linecap="round" />
</g>
		<g transform="matrix(1 0 0 1 65.38 -40.67)"  >
<path style="stroke: none; stroke-width: 1; stroke-dasharray: none; stroke-linecap: butt; stroke-dashoffset: 0; stroke-linejoin: miter; stroke-miterlimit: 4; fill: rgb(255,255,255); fill-rule: nonzero; opacity: 0.4;" vector-effect="non-scaling-stroke"  transform=" translate(-315.38, -200.61)" d="M 324 198.94 C 318.55 188.73 316.32 188.01 315.35 184.73 C 316.0849058919647 182.89584185984305 317.133943927549 181.20384502825542 318.45000000000005 179.73 C 317.79 179.54 316.37000000000006 179.26 315.45000000000005 179.09 C 315.55000000000007 178.64000000000001 315.66 178.20000000000002 315.76000000000005 177.77 C 314.75888034872037 177.65798293044483 313.74633648697574 177.70523497732626 312.76000000000005 177.91 L 312.76000000000005 176.91 C 311.4897554140228 176.63364137610108 310.18524381227604 176.54937060079445 308.89000000000004 176.66 Q 309.06000000000006 177.37 309.22 178.1 C 308.22 178.29 306.70000000000005 178.6 305.97 178.81 C 307.3884942615465 180.41656531723183 308.4304958406303 182.31949934854214 309.02000000000004 184.38 C 306.08000000000004 189.43 294.66 221.89 313.24000000000007 224.38 C 331.8200000000001 226.87 329.44 209.16 324 198.94 Z" stroke-linecap="round" />
</g>
		<g transform="matrix(1 0 0 1 62.1 -56.78)"  >
<path style="stroke: none; stroke-width: 1; stroke-dasharray: none; stroke-linecap: butt; stroke-dashoffset: 0; stroke-linejoin: miter; stroke-miterlimit: 4; fill: rgb(64,123,255); fill-rule: nonzero; opacity: 1;" vector-effect="non-scaling-stroke"  transform=" translate(-312.1, -184.5)" d="M 308.26 183.41 C 308.14432809454087 183.9249673293582 308.09393203756304 184.45244605905935 308.11 184.98 C 308.11 185.35 309.11 185.6 310.22 185.70999999999998 C 311.33000000000004 185.81999999999996 315.99 185.99999999999997 315.84000000000003 185.48 C 315.69000000000005 184.96 316.07000000000005 184.25 316.09000000000003 183.81 C 316.11 183.37 314.24 183.35 312.67 183.41 C 311.1 183.47 308.57 182.85 308.26 183.41 Z" stroke-linecap="round" />
</g>
		<g transform="matrix(1 0 0 1 47.69 -22.49)"  >
<path style="stroke: none; stroke-width: 1; stroke-dasharray: none; stroke-linecap: butt; stroke-dashoffset: 0; stroke-linejoin: miter; stroke-miterlimit: 4; fill: rgb(64,123,255); fill-rule: nonzero; opacity: 1;" vector-effect="non-scaling-stroke"  transform=" translate(-297.69, -218.79)" d="M 297.45 221 L 298.37 221 C 298.55 221 298.69 220.9 298.68 220.79 L 298.25 216.79 C 298.25 216.67 298.08 216.57999999999998 297.89 216.57999999999998 L 297 216.57999999999998 C 296.82 216.57999999999998 296.68 216.67 296.69 216.79 L 297.12 220.79 C 297.1 220.92 297.26 221 297.45 221 Z" stroke-linecap="round" />
</g>
</g>
</g>
</svg>